<svg height="1000px" width="767px" xmlns="http://www.w3.org/2000/svg">
  <g>
    <path d="M106 203c0 0 661 0 661 0c0 0 0 505 0 505c0 47 -41 89 -84 89c0 0 -574 0 -574 0c-71 0 -109 -37 -109 -127c0 0 0 -369 0 -369c0 0 106 0 106 0c0 0 0 -98 0 -98c0 0 0 0 0 0m0 467c0 0 0 -315 0 -315c0 0 -52 0 -52 0c0 0 0 315 0 315c0 46 11 68 25 68c17 0 27 -22 27 -68c0 0 0 0 0 0m607 38c0 0 0 -451 0 -451c0 0 -553 0 -553 0c0 0 0 413 0 413c0 32 -6 55 -15 73c0 0 538 0 538 0c18 0 30 -21 30 -35c0 0 0 0 0 0m-340 -108c0 0 0 18 0 18c0 0 -127 0 -127 0c0 0 0 -18 0 -18c0 0 127 0 127 0c0 0 0 0 0 0m0 57c0 0 0 18 0 18c0 0 -127 0 -127 0c0 0 0 -18 0 -18c0 0 127 0 127 0c0 0 0 0 0 0m50 -25c0 0 0 -203 0 -203c0 0 213 0 213 0c0 0 0 203 0 203c0 0 -213 0 -213 0c0 0 0 0 0 0m-50 -144c0 0 0 18 0 18c0 0 -127 0 -127 0c0 0 0 -18 0 -18c0 0 127 0 127 0c0 0 0 0 0 0m0 57c0 0 0 18 0 18c0 0 -127 0 -127 0c0 0 0 -18 0 -18c0 0 127 0 127 0c0 0 0 0 0 0m0 -116c0 0 0 18 0 18c0 0 -127 0 -127 0c0 0 0 -18 0 -18c0 0 127 0 127 0c0 0 0 0 0 0m-108 -58c0 0 0 -35 0 -35c0 0 333 0 333 0c0 0 0 35 0 35c0 0 -333 0 -333 0c0 0 0 0 0 0" />
  </g>
</svg>