<svg height="1000" width="959" xmlns="http://www.w3.org/2000/svg"><path d="M132.5 128.5l826.25 0l0 631.25c0 58.75 -51.25 111.25 -105 111.25l-717.5 0c-88.75 0 -136.25 -46.25 -136.25 -158.75l0 -461.25l132.5 0l0 -122.5zm0 583.75l0 -393.75l-65 0l0 393.75c0 57.5 13.75 85 31.25 85 21.25 0 33.75 -27.5 33.75 -85zm758.75 47.5l0 -563.75l-691.25 0l0 516.25c0 40 -7.5 68.75 -18.75 91.25l672.5 0c22.5 0 37.5 -26.25 37.5 -43.75zm-425 -135l0 22.5l-158.75 0l0 -22.5l158.75 0zm0 71.25l0 22.5l-158.75 0l0 -22.5l158.75 0zm62.5 -31.25l0 -253.75l266.25 0l0 253.75l-266.25 0zm-62.5 -180l0 22.5l-158.75 0l0 -22.5l158.75 0zm0 71.25l0 22.5l-158.75 0l0 -22.5l158.75 0zm0 -145l0 22.5l-158.75 0l0 -22.5l158.75 0zm-135 -72.5l0 -43.75l416.25 0l0 43.75l-416.25 0z"/></svg>