<svg height="1000px" width="636px" xmlns="http://www.w3.org/2000/svg">
  <g>
    <path d="M616 341.5c13 33 20 70 20 111c0 54 -14 106 -37 145c-31 49 -75 74 -130 74c-22 0 -42 -6 -56 -17c-10 -7 -19 -17 -24 -29c-21 27 -55 44 -91 44c-41 0 -76 -15 -98 -46c-22 -28 -33 -67 -33 -113c0 -46 13 -88 39 -118c27 -33 66 -51 113 -51c28 0 54 12 72 30c0 0 6 -21 6 -21c0 0 68 0 68 0c0 0 -14 207 -14 207c-1 17 1 29 7 35c3 4 8 6 16 6c61 0 82 -98 82 -146c0 -58 -19 -106 -54 -141c-40 -41 -97 -61 -167 -61c-67 0 -126 21 -171 61c-52 47 -81 114 -81 196c0 69 25 132 68 177c42 42 98 65 164 65c76 0 134 -11 193 -37c0 0 12 -6 12 -6c0 0 0 77 0 77c0 0 -5 2 -5 2c-55 27 -120 40 -201 40c-86 0 -160 -26 -215 -77c-65 -59 -99 -147 -99 -247c0 -95 32 -176 93 -235c30 -29 66 -52 106 -67c42 -17 87 -25 135 -25c91 0 172 30 227 85c24 23 43 51 55 82c0 0 0 0 0 0m-307 254c24 0 43 -11 55 -32c11 -20 14 -49 14 -68c0 -25 -5 -45 -13 -59c-11 -16 -27 -23 -48 -23c-23 0 -40 10 -51 31c-10 17 -15 42 -15 66c0 26 6 85 58 85c0 0 0 0 0 0" />
  </g>
</svg>