<svg height="1000" width="795" xmlns="http://www.w3.org/2000/svg"><path d="M770 301.75c16.25 41.25 25 87.5 25 138.75 0 67.5 -17.5 132.5 -46.25 181.25 -38.75 61.25 -93.75 92.5 -162.5 92.5 -27.5 0 -52.5 -7.5 -70 -21.25 -12.5 -8.75 -23.75 -21.25 -30 -36.25 -26.25 33.75 -68.75 55 -113.75 55 -51.25 0 -95 -18.75 -122.5 -57.5 -27.5 -35 -41.25 -83.75 -41.25 -141.25s16.25 -110 48.75 -147.5c33.75 -41.25 82.5 -63.75 141.25 -63.75 35 0 67.5 15 90 37.5l7.5 -26.25l85 0l-17.5 258.75c-1.25 21.25 1.25 36.25 8.75 43.75 3.75 5 10 7.5 20 7.5 76.25 0 102.5 -122.5 102.5 -182.5 0 -72.5 -23.75 -132.5 -67.5 -176.25 -50 -51.25 -121.25 -76.25 -208.75 -76.25 -83.75 0 -157.5 26.25 -213.75 76.25 -65 58.75 -101.25 142.5 -101.25 245 0 86.25 31.25 165 85 221.25 52.5 52.5 122.5 81.25 205 81.25 95 0 167.5 -13.75 241.25 -46.25l15 -7.5l0 96.25l-6.25 2.5c-68.75 33.75 -150 50 -251.25 50 -107.5 0 -200 -32.5 -268.75 -96.25 -81.25 -73.75 -123.75 -183.75 -123.75 -308.75 0 -118.75 40 -220 116.25 -293.75 37.5 -36.25 82.5 -65 132.5 -83.75 52.5 -21.25 108.75 -31.25 168.75 -31.25 113.75 0 215 37.5 283.75 106.25 30 28.75 53.75 63.75 68.75 102.5zm-383.75 317.5c30 0 53.75 -13.75 68.75 -40 13.75 -25 17.5 -61.25 17.5 -85 0 -31.25 -6.25 -56.25 -16.25 -73.75 -13.75 -20 -33.75 -28.75 -60 -28.75 -28.75 0 -50 12.5 -63.75 38.75 -12.5 21.25 -18.75 52.5 -18.75 82.5 0 32.5 7.5 106.25 72.5 106.25z"/></svg>