<svg height="1000px" width="493px" xmlns="http://www.w3.org/2000/svg">
  <g>
    <path d="M397 595c0 0 2 0 2 0c0 0 94 179 94 179c0 0 -100 8 -100 8c0 0 -63 74 -63 74c0 0 -83 -131 -83 -131c0 0 -83 131 -83 131c0 0 -67 -75 -67 -75c0 0 -97 -7 -97 -7c0 0 94 -179 94 -179c0 0 1 -1 1 -1c1 7 4 12 8 18c7 10 18 16 31 23c11 4 21 6 30 6c10 0 20 -2 26 -6c5 4 10 9 16 12c10 6 23 10 38 10c14 0 26 -4 37 -10c6 -3 10 -8 14 -12c9 4 18 6 28 6c9 0 18 -2 29 -6c15 -7 24 -13 31 -23c4 -6 8 -11 10 -18c1 1 2 1 4 1c0 0 0 0 0 0m80 -236c4 6 6 15 6 25c0 10 -2 18 -6 24c-5 11 -63 8 -74 8c0 0 -2 0 -2 0c0 0 2 0 2 0c10 5 64 23 65 34c2 8 0 16 -4 26c-8 22 -23 27 -32 27c-6 0 -50 -26 -52 -28c0 0 -3 -1 -3 -1c0 0 1 1 1 1c6 6 52 46 48 56c-2 8 -6 15 -13 22c-10 10 -19 15 -30 15c-6 0 -43 -43 -49 -49c0 0 -1 -1 -1 -1c0 0 0 3 0 3c4 8 29 61 23 69c-5 6 -11 12 -21 15c-7 3 -14 5 -20 5c-13 0 -34 -56 -40 -66c0 0 0 -2 0 -2c0 0 0 2 0 2c0 10 3 68 -7 73c-6 5 -15 7 -24 7c-11 0 -19 -2 -25 -7c-10 -5 -7 -63 -7 -73c0 0 0 -2 0 -2c0 0 -1 2 -1 2c-4 10 -26 66 -40 66c-5 0 -12 -2 -20 -5c-9 -3 -15 -9 -20 -15c-7 -8 18 -61 22 -69c0 0 2 -3 2 -3c0 0 -4 1 -4 1c-6 6 -42 49 -48 49c-9 0 -19 -5 -29 -15c-7 -7 -12 -14 -13 -22c-3 -10 40 -50 46 -56c0 0 3 -1 3 -1c0 0 -4 1 -4 1c-2 2 -46 28 -50 28c-11 0 -24 -5 -34 -27c-4 -10 -5 -18 -4 -26c1 -11 56 -29 66 -34c0 0 2 0 2 0c0 0 -2 0 -2 0c-10 0 -68 3 -74 -8c-5 -6 -6 -14 -6 -24c0 -10 1 -19 6 -25c6 -9 64 -6 74 -6c0 0 2 0 2 0c0 0 -2 -1 -2 -1c-10 -4 -65 -23 -66 -35c-1 -7 0 -16 4 -25c10 -22 23 -26 34 -26c4 0 48 26 50 28c0 0 4 1 4 1c0 0 -3 -3 -3 -3c-6 -6 -49 -45 -46 -56c1 -7 6 -14 13 -22c10 -9 20 -13 29 -13c0 0 0 0 0 0c6 0 42 40 48 47c0 0 4 3 4 3c0 0 -2 -4 -2 -4c-4 -8 -29 -60 -22 -70c5 -6 11 -10 20 -14c8 -3 15 -4 20 -4c0 0 0 0 0 0c0 0 0 0 0 0c14 0 36 55 40 66c0 0 1 2 1 2c0 0 0 -2 0 -2c0 -11 -3 -69 7 -75c6 -4 14 -6 25 -6c9 0 18 2 24 6c10 6 7 64 7 75c0 0 0 2 0 2c0 0 0 -2 0 -2c6 -11 27 -66 40 -66c6 0 13 1 20 4c10 4 16 8 21 14c6 10 -19 62 -23 70c0 0 0 4 0 4c0 0 1 -3 1 -3c6 -7 43 -47 49 -47c0 0 0 0 0 0c0 0 0 0 0 0c11 0 20 4 30 13c7 8 11 15 13 22c4 11 -42 50 -48 56c0 0 -1 3 -1 3c0 0 3 -1 3 -1c2 -2 46 -28 52 -28c0 0 0 0 0 0c0 0 0 0 0 0c9 0 24 4 32 26c4 9 6 18 4 25c-1 12 -55 31 -65 35c0 0 -2 1 -2 1c0 0 2 0 2 0c11 0 69 -3 74 6c0 0 0 0 0 0m-233 180c85 0 154 -70 154 -155c0 -86 -69 -156 -154 -156c-86 0 -157 70 -157 156c0 85 71 155 157 155c0 0 0 0 0 0m0 -36c-67 0 -121 -53 -121 -119c0 -67 54 -120 121 -120c66 0 118 53 118 120c0 66 -52 119 -118 119c0 0 0 0 0 0" />
  </g>
</svg>