<svg height="1000" width="616" xmlns="http://www.w3.org/2000/svg"><path d="M496.25 618.75l2.5 0l117.5 223.75 -125 10 -78.75 92.5 -103.75 -163.75 -103.75 163.75 -83.75 -93.75 -121.25 -8.75 117.5 -223.75 1.25 -1.25c1.25 8.75 5 15 10 22.5 8.75 12.5 22.5 20 38.75 28.75 13.75 5 26.25 7.5 37.5 7.5 12.5 0 25 -2.5 32.5 -7.5 6.25 5 12.5 11.25 20 15 12.5 7.5 28.75 12.5 47.5 12.5 17.5 0 32.5 -5 46.25 -12.5 7.5 -3.75 12.5 -10 17.5 -15 11.25 5 22.5 7.5 35 7.5 11.25 0 22.5 -2.5 36.25 -7.5 18.75 -8.75 30 -16.25 38.75 -28.75 5 -7.5 10 -13.75 12.5 -22.5 1.25 1.25 2.5 1.25 5 1.25zm100 -295c5 7.5 7.5 18.75 7.5 31.25s-2.5 22.5 -7.5 30c-6.25 13.75 -78.75 10 -92.5 10l0 0c12.5 6.25 80 28.75 81.25 42.5 2.5 10 0 20 -5 32.5 -10 27.5 -28.75 33.75 -40 33.75 -7.5 0 -62.5 -32.5 -65 -35l-3.75 -1.25 1.25 1.25c7.5 7.5 65 57.5 60 70 -2.5 10 -7.5 18.75 -16.25 27.5 -12.5 12.5 -23.75 18.75 -37.5 18.75 -7.5 0 -53.75 -53.75 -61.25 -61.25l-1.25 -1.25l0 3.75c5 10 36.25 76.25 28.75 86.25 -6.25 7.5 -13.75 15 -26.25 18.75 -8.75 3.75 -17.5 6.25 -25 6.25 -16.25 0 -42.5 -70 -50 -82.5l0 0c0 12.5 3.75 85 -8.75 91.25 -7.5 6.25 -18.75 8.75 -30 8.75 -13.75 0 -23.75 -2.5 -31.25 -8.75 -12.5 -6.25 -8.75 -78.75 -8.75 -91.25l0 -2.5l-1.25 2.5c-5 12.5 -32.5 82.5 -50 82.5 -6.25 0 -15 -2.5 -25 -6.25 -11.25 -3.75 -18.75 -11.25 -25 -18.75 -8.75 -10 22.5 -76.25 27.5 -86.25l2.5 -3.75 -5 1.25c-7.5 7.5 -52.5 61.25 -60 61.25 -11.25 0 -23.75 -6.25 -36.25 -18.75 -8.75 -8.75 -15 -17.5 -16.25 -27.5 -3.75 -12.5 50 -62.5 57.5 -70l3.75 -1.25 -5 1.25c-2.5 2.5 -57.5 35 -62.5 35 -13.75 0 -30 -6.25 -42.5 -33.75 -5 -12.5 -6.25 -22.5 -5 -32.5 1.25 -13.75 70 -36.25 82.5 -42.5l0 0c-12.5 0 -85 3.75 -92.5 -10 -6.25 -7.5 -7.5 -17.5 -7.5 -30s1.25 -23.75 7.5 -31.25c7.5 -11.25 80 -7.5 92.5 -7.5l2.5 0l-2.5 -1.25c-12.5 -5 -81.25 -28.75 -82.5 -43.75 -1.25 -8.75 0 -20 5 -31.25 12.5 -27.5 28.75 -32.5 42.5 -32.5 5 0 60 32.5 62.5 35l5 1.25 -3.75 -3.75c-7.5 -7.5 -61.25 -56.25 -57.5 -70 1.25 -8.75 7.5 -17.5 16.25 -27.5 12.5 -11.25 25 -16.25 36.25 -16.25 7.5 0 52.5 50 60 58.75l5 3.75 -2.5 -5c-5 -10 -36.25 -75 -27.5 -87.5 6.25 -7.5 13.75 -12.5 25 -17.5 10 -3.75 18.75 -5 25 -5 17.5 0 45 68.75 50 82.5l1.25 2.5l0 -2.5c0 -13.75 -3.75 -86.25 8.75 -93.75 7.5 -5 17.5 -7.5 31.25 -7.5 11.25 0 22.5 2.5 30 7.5 12.5 7.5 8.75 80 8.75 93.75l0 0c7.5 -13.75 33.75 -82.5 50 -82.5 7.5 0 16.25 1.25 25 5 12.5 5 20 10 26.25 17.5 7.5 12.5 -23.75 77.5 -28.75 87.5l0 5l1.25 -3.75c7.5 -8.75 53.75 -58.75 61.25 -58.75 13.75 0 25 5 37.5 16.25 8.75 10 13.75 18.75 16.25 27.5 5 13.75 -52.5 62.5 -60 70l-1.25 3.75 3.75 -1.25c2.5 -2.5 57.5 -35 65 -35 11.25 0 30 5 40 32.5 5 11.25 7.5 22.5 5 31.25 -1.25 15 -68.75 38.75 -81.25 43.75l-2.5 1.25l2.5 0c13.75 0 86.25 -3.75 92.5 7.5zm-291.25 225c106.25 0 192.5 -87.5 192.5 -193.75 0 -107.5 -86.25 -195 -192.5 -195 -107.5 0 -196.25 87.5 -196.25 195 0 106.25 88.75 193.75 196.25 193.75zm0 -45c-83.75 0 -151.25 -66.25 -151.25 -148.75 0 -83.75 67.5 -150 151.25 -150 82.5 0 147.5 66.25 147.5 150 0 82.5 -65 148.75 -147.5 148.75z"/></svg>