<svg height="1000" width="806" xmlns="http://www.w3.org/2000/svg"><path d="M358.75 791.25c0 46.25 -37.5 83.75 -83.75 83.75s-83.75 -37.5 -83.75 -83.75 37.5 -83.75 83.75 -83.75 83.75 37.5 83.75 83.75zm405 0c0 46.25 -37.5 83.75 -83.75 83.75 -45 0 -82.5 -37.5 -82.5 -83.75s37.5 -83.75 82.5 -83.75c46.25 0 82.5 37.5 83.75 83.75zm-6.25 -525c27.5 1.25 48.75 22.5 48.75 50l0 281.25c0 28.75 -22.5 51.25 -51.25 51.25l-477.5 0c-23.75 0 -45 -18.75 -48.75 -42.5l-88.75 -317.5s-15 -57.5 -41.25 -65c-41.25 -11.25 -98.75 11.25 -98.75 -55 0 -42.5 38.75 -42.5 38.75 -42.5 1.25 0 8.75 -1.25 18.75 -1.25 60 0 131.25 22.5 158.75 102.5zm-41.25 167.5l0 -81.25l-113.75 -8.75l0 90l113.75 0zm-278.75 0l125 0l0 -92.5l-125 -8.75l0 101.25zm125 28.75l-125 0l0 96.25l125 0l0 -96.25zm-165 -132.5l-160 -10 37.5 113.75l122.5 0l0 -103.75zm-112.5 132.5l30 96.25l82.5 0l0 -96.25l-112.5 0zm317.5 96.25l113.75 0l0 -96.25l-113.75 0l0 96.25z"/></svg>