<svg height="1000px" width="645px" xmlns="http://www.w3.org/2000/svg">
  <g>
    <path d="M287 733c0 37 -30 67 -67 67c-37 0 -67 -30 -67 -67c0 -37 30 -67 67 -67c37 0 67 30 67 67c0 0 0 0 0 0m324 0c0 37 -30 67 -67 67c-36 0 -66 -30 -66 -67c0 -37 30 -67 66 -67c37 0 66 30 67 67c0 0 0 0 0 0m-5 -420c22 1 39 18 39 40c0 0 0 225 0 225c0 23 -18 41 -41 41c0 0 -382 0 -382 0c-19 0 -36 -15 -39 -34c0 0 -71 -254 -71 -254c0 0 -12 -46 -33 -52c-33 -9 -79 9 -79 -44c0 -34 31 -34 31 -34c1 0 7 -1 15 -1c48 0 105 18 127 82c0 0 433 31 433 31m-33 134c0 0 0 -65 0 -65c0 0 -91 -7 -91 -7c0 0 0 72 0 72c0 0 91 0 91 0c0 0 0 0 0 0m-223 0c0 0 100 0 100 0c0 0 0 -74 0 -74c0 0 -100 -7 -100 -7c0 0 0 81 0 81c0 0 0 0 0 0m100 23c0 0 -100 0 -100 0c0 0 0 77 0 77c0 0 100 0 100 0c0 0 0 -77 0 -77c0 0 0 0 0 0m-132 -106c0 0 -128 -8 -128 -8c0 0 30 91 30 91c0 0 98 0 98 0c0 0 0 -83 0 -83c0 0 0 0 0 0m-90 106c0 0 24 77 24 77c0 0 66 0 66 0c0 0 0 -77 0 -77c0 0 -90 0 -90 0c0 0 0 0 0 0m254 77c0 0 91 0 91 0c0 0 0 -77 0 -77c0 0 -91 0 -91 0c0 0 0 77 0 77c0 0 0 0 0 0" />
  </g>
</svg>