<svg height="1000" width="811" xmlns="http://www.w3.org/2000/svg"><path d="M138.75 774.5c45 0 78.75 35 78.75 78.75 0 42.5 -33.75 77.5 -78.75 77.5 -42.5 0 -77.5 -35 -77.5 -77.5 0 -43.75 35 -78.75 77.5 -78.75zm530 0c43.75 0 77.5 35 77.5 78.75 0 42.5 -33.75 77.5 -77.5 77.5s-78.75 -35 -78.75 -77.5c0 -43.75 35 -78.75 78.75 -78.75zm-477.5 -588.75l565 0c37.5 0 55 22.5 55 50l0 233.75c0 26.25 -20 47.5 -46.25 50l-505 56.25c-41.25 5 -46.25 58.75 2.5 58.75l478.75 0c55 0 55 81.25 0 81.25l-488.75 0c-110 0 -151.25 -121.25 -65 -185l43.75 -32.5 -155 -338.75l-76.25 0c-58.75 0 -58.75 -90 0 -90l88.75 0c45 0 57.5 21.25 71.25 53.75zm345 70l-130 0l26.25 85l123.75 0zm-312.5 0l38.75 85l126.25 0l-27.5 -85l-137.5 0zm108.75 241.25l100 -10 -32.5 -101.25l-118.75 0zm143.75 -15l112.5 -11.25 -25 -85l-118.75 0zm266.25 -28.75l0 -67.5l-132.5 0l20 78.75zm0 -112.5l0 -85l-161.25 0l18.75 85l142.5 0z"/></svg>