<svg height="1000px" width="684.25px" xmlns="http://www.w3.org/2000/svg">
  <g>
    <path d="M146.25 719.5c36 0 63 28 63 63c0 34 -27 62 -63 62c-34 0 -62 -28 -62 -62c0 -35 28 -63 62 -63c0 0 0 0 0 0m424 0c35 0 62 28 62 63c0 34 -27 62 -62 62c-35 0 -63 -28 -63 -62c0 -35 28 -63 63 -63c0 0 0 0 0 0m-382 -471c0 0 452 0 452 0c30 0 44 18 44 40c0 0 0 187 0 187c0 21 -16 38 -37 40c0 0 -404 45 -404 45c-33 4 -37 47 2 47c0 0 383 0 383 0c44 0 44 65 0 65c0 0 -391 0 -391 0c-88 0 -121 -97 -52 -148c0 0 35 -26 35 -26c0 0 -124 -271 -124 -271c0 0 -61 0 -61 0c-47 0 -47 -72 0 -72c0 0 71 0 71 0c36 0 46 17 57 43c0 0 25 50 25 50m276 56c0 0 -104 0 -104 0c0 0 21 68 21 68c0 0 99 0 99 0c0 0 -16 -68 -16 -68m-250 0c0 0 31 68 31 68c0 0 101 0 101 0c0 0 -22 -68 -22 -68c0 0 -110 0 -110 0c0 0 0 0 0 0m87 193c0 0 80 -8 80 -8c0 0 -26 -81 -26 -81c0 0 -95 0 -95 0c0 0 41 89 41 89m115 -12c0 0 90 -9 90 -9c0 0 -20 -68 -20 -68c0 0 -95 0 -95 0c0 0 25 77 25 77m213 -23c0 0 0 -54 0 -54c0 0 -106 0 -106 0c0 0 16 63 16 63c0 0 90 -9 90 -9m0 -90c0 0 0 -68 0 -68c0 0 -129 0 -129 0c0 0 15 68 15 68c0 0 114 0 114 0c0 0 0 0 0 0" />
  </g>
</svg>