<svg height="1000" width="711" xmlns="http://www.w3.org/2000/svg"><path d="M355 760c-31.25 0 -56.25 -27.5 -56.25 -62.5 0 -7.5 38.75 -8.75 56.25 -8.75 43.75 0 56.25 3.75 56.25 8.75 0 35 -25 62.5 -56.25 62.5zm340 -45c10 11.25 16.25 23.75 16.25 37.5 0 87.5 -223.75 127.5 -356.25 127.5s-355 -40 -355 -127.5c0 -13.75 5 -26.25 15 -37.5 121.25 -248.75 90 -365 156.25 -457.5 30 -41.25 65 -67.5 121.25 -80 2.5 -32.5 28.75 -57.5 62.5 -57.5 32.5 0 60 25 62.5 57.5 56.25 12.5 91.25 38.75 121.25 80 66.25 92.5 35 208.75 156.25 457.5zm-340 87.5c98.75 0 231.25 -12.5 282.5 -75 -51.25 -61.25 -183.75 -73.75 -282.5 -73.75 -97.5 0 -231.25 12.5 -282.5 73.75 51.25 61.25 185 76.25 282.5 75z"/></svg>