<svg height="1000px" width="569px" xmlns="http://www.w3.org/2000/svg">
  <g>
    <path d="M284 708c-25 0 -45 -22 -45 -50c0 -6 31 -7 45 -7c35 0 45 3 45 7c0 28 -20 50 -45 50c0 0 0 0 0 0m272 -36c8 9 13 19 13 30c0 70 -179 102 -285 102c-106 0 -284 -32 -284 -102c0 -11 4 -21 12 -30c97 -199 72 -292 125 -366c24 -33 52 -54 97 -64c2 -26 23 -46 50 -46c26 0 48 20 50 46c45 10 73 31 97 64c53 74 28 167 125 366c0 0 0 0 0 0m-272 70c79 0 185 -10 226 -60c-41 -49 -147 -59 -226 -59c-78 0 -185 10 -226 59c41 49 148 61 226 60c0 0 0 0 0 0" />
  </g>
</svg>