<svg height="1000" width="1213" xmlns="http://www.w3.org/2000/svg"><path d="M250.75 429.75c8.75 0 16.25 -8.75 16.25 -17.5s-7.5 -16.25 -16.25 -16.25l-100 0c-8.75 0 -17.5 7.5 -17.5 16.25s8.75 17.5 17.5 17.5l100 0zm0 72.5c8.75 0 16.25 -8.75 16.25 -17.5s-7.5 -16.25 -16.25 -16.25l-100 0c-8.75 0 -17.5 7.5 -17.5 16.25s8.75 17.5 17.5 17.5l100 0zm210 13.75c118.75 0 211.25 42.5 290 121.25l0 -376.25c-77.5 82.5 -171.25 126.25 -290 126.25l0 128.75zm497.5 -220l-33.75 -33.75 137.5 -136.25 33.75 32.5zm25 175l0 -47.5l230 0l0 47.5l-230 0zm-58.75 171.25l33.75 -33.75 137.5 137.5 -33.75 32.5zm-127.5 -516.25c20 0 36.25 15 36.25 33.75l0 577.5c0 18.75 -16.25 33.75 -36.25 33.75s-35 -15 -35 -33.75c-58.75 -72.5 -162.5 -165 -317.5 -165l-63.75 0l140 236.25 -85 61.25c-21.25 11.25 -43.75 -2.5 -56.25 -17.5l-173.75 -280l-93.75 0s-87.5 -47.5 -87.5 -122.5 87.5 -117.5 87.5 -117.5l332.5 0c155 0 258.75 -96.25 317.5 -172.5 0 -18.75 15 -33.75 35 -33.75z"/></svg>