<svg height="1000px" width="951px" xmlns="http://www.w3.org/2000/svg">
  <g>
    <path d="M181 443.8506957821426c7 0 13 -7 13 -14c0 -7 -6 -13 -13 -13c0 0 -80 0 -80 0c-7 0 -14 6 -14 13c0 7 7 14 14 14c0 0 80 0 80 0c0 0 0 0 0 0m0 58c7 0 13 -7 13 -14c0 -7 -6 -13 -13 -13c0 0 -80 0 -80 0c-7 0 -14 6 -14 13c0 7 7 14 14 14c0 0 80 0 80 0c0 0 0 0 0 0m168 11c95 0 169 34 232 97c0 0 0 -301 0 -301c-62 66 -137 101 -232 101c0 0 0 103 0 103c0 0 0 0 0 0m398 -176c0 0 -27 -27 -27 -27c0 0 110 -109 110 -109c0 0 27 26 27 26c0 0 -110 110 -110 110m20 140c0 0 0 -38 0 -38c0 0 184 0 184 0c0 0 0 38 0 38c0 0 -184 0 -184 0c0 0 0 0 0 0m-47 137c0 0 27 -27 27 -27c0 0 110 110 110 110c0 0 -27 26 -27 26c0 0 -110 -109 -110 -109m-102 -413c16 0 29 12 29 27c0 0 0 462 0 462c0 15 -13 27 -29 27c-16 0 -28 -12 -28 -27c-47 -58 -130 -132 -254 -132c0 0 -51 0 -51 0c0 0 112 189 112 189c0 0 -68 49 -68 49c-17 9 -35 -2 -45 -14c0 0 -139 -224 -139 -224c0 0 -75 0 -75 0c0 0 -70 -38 -70 -98c0 -60 70 -94 70 -94c0 0 266 0 266 0c124 0 207 -77 254 -138c0 -15 12 -27 28 -27c0 0 0 0 0 0" />
  </g>
</svg>