<svg height="1000px" width="613px" xmlns="http://www.w3.org/2000/svg">
  <g>
    <path d="M168 368.5c0 0 -168 0 -168 0c0 0 0 -148 0 -148c0 0 168 0 168 0c0 0 0 148 0 148c0 0 0 0 0 0m-148 131c0 0 0 -55 0 -55c0 0 128 0 128 0c0 0 0 55 0 55c0 0 -128 0 -128 0c0 0 0 0 0 0m0 140c0 0 0 -55 0 -55c0 0 128 0 128 0c0 0 0 55 0 55c0 0 -128 0 -128 0c0 0 0 0 0 0m0 140c0 0 0 -55 0 -55c0 0 128 0 128 0c0 0 0 55 0 55c0 0 -128 0 -128 0c0 0 0 0 0 0m370 -411c0 0 -168 0 -168 0c0 0 0 -148 0 -148c0 0 168 0 168 0c0 0 0 148 0 148c0 0 0 0 0 0m-148 131c0 0 0 -55 0 -55c0 0 128 0 128 0c0 0 0 55 0 55c0 0 -128 0 -128 0c0 0 0 0 0 0m0 140c0 0 0 -55 0 -55c0 0 128 0 128 0c0 0 0 55 0 55c0 0 -128 0 -128 0c0 0 0 0 0 0m0 140c0 0 0 -55 0 -55c0 0 128 0 128 0c0 0 0 55 0 55c0 0 -128 0 -128 0c0 0 0 0 0 0m371 -411c0 0 -168 0 -168 0c0 0 0 -148 0 -148c0 0 168 0 168 0c0 0 0 148 0 148c0 0 0 0 0 0m-148 131c0 0 0 -55 0 -55c0 0 128 0 128 0c0 0 0 55 0 55c0 0 -128 0 -128 0c0 0 0 0 0 0m0 140c0 0 0 -55 0 -55c0 0 128 0 128 0c0 0 0 55 0 55c0 0 -128 0 -128 0c0 0 0 0 0 0m0 140c0 0 0 -55 0 -55c0 0 128 0 128 0c0 0 0 55 0 55c0 0 -128 0 -128 0c0 0 0 0 0 0" />
  </g>
</svg>