<svg height="1000" width="981" xmlns="http://www.w3.org/2000/svg"><path d="M692.5 126.75l222.5 0c36.25 0 66.25 30 66.25 66.25l0 110c0 36.25 -30 66.25 -66.25 66.25l-100 0l0 488.75c0 46.25 -21.25 68.75 -70 68.75l-508.75 0c-45 0 -70 -22.5 -70 -68.75l0 -488.75l-100 0c-36.25 0 -66.25 -30 -66.25 -66.25l0 -110c0 -36.25 30 -66.25 66.25 -66.25l222.5 0l0 -5c0 -26.25 22.5 -48.75 50 -48.75l11.25 0c27.5 0 48.75 22.5 48.75 48.75l0 5l185 0l0 -5c0 -26.25 21.25 -48.75 47.5 -48.75l12.5 0c27.5 0 48.75 22.5 48.75 48.75l0 5zm-321.25 721.25c23.75 0 43.75 -20 43.75 -43.75 0 -25 -20 -45 -43.75 -45 -26.25 0 -46.25 20 -46.25 45 0 23.75 20 43.75 46.25 43.75zm0 -113.75c23.75 0 43.75 -20 43.75 -45 0 -23.75 -20 -43.75 -43.75 -43.75 -26.25 0 -46.25 20 -46.25 43.75 0 25 20 45 46.25 45zm0 -115c23.75 0 43.75 -18.75 43.75 -45 0 -23.75 -20 -43.75 -43.75 -43.75 -26.25 0 -46.25 20 -46.25 43.75 0 26.25 20 45 46.25 45zm0 -115c23.75 0 43.75 -20 43.75 -43.75 0 -25 -20 -45 -43.75 -45 -26.25 0 -46.25 20 -46.25 45 0 23.75 20 43.75 46.25 43.75zm120 343.75c23.75 0 43.75 -20 43.75 -43.75 0 -25 -20 -45 -43.75 -45 -25 0 -45 20 -45 45 0 23.75 20 43.75 45 43.75zm0 -113.75c23.75 0 43.75 -20 43.75 -45 0 -23.75 -20 -43.75 -43.75 -43.75 -25 0 -45 20 -45 43.75 0 25 20 45 45 45zm0 -115c23.75 0 43.75 -18.75 43.75 -45 0 -23.75 -20 -43.75 -43.75 -43.75 -25 0 -45 20 -45 43.75 0 26.25 20 45 45 45zm0 -115c23.75 0 43.75 -20 43.75 -43.75 0 -25 -20 -45 -43.75 -45 -25 0 -45 20 -45 45 0 23.75 20 43.75 45 43.75zm120 343.75c26.25 0 45 -20 45 -43.75 0 -25 -18.75 -45 -45 -45 -25 0 -45 20 -45 45 0 23.75 20 43.75 45 43.75zm0 -113.75c26.25 0 45 -20 45 -45 0 -23.75 -18.75 -43.75 -45 -43.75 -25 0 -45 20 -45 43.75 0 25 20 45 45 45zm0 -115c26.25 0 45 -18.75 45 -45 0 -23.75 -18.75 -43.75 -45 -43.75 -25 0 -45 20 -45 43.75 0 26.25 20 45 45 45zm0 -115c26.25 0 45 -20 45 -43.75 0 -25 -18.75 -45 -45 -45 -25 0 -45 20 -45 45 0 23.75 20 43.75 45 43.75z"/></svg>