<svg height="1000" width="766" xmlns="http://www.w3.org/2000/svg"><path d="M210 335.5l-210 0l0 -185l210 0l0 185zm-185 163.75l0 -68.75l160 0l0 68.75l-160 0zm0 175l0 -68.75l160 0l0 68.75l-160 0zm0 175l0 -68.75l160 0l0 68.75l-160 0zm462.5 -513.75l-210 0l0 -185l210 0l0 185zm-185 163.75l0 -68.75l160 0l0 68.75l-160 0zm0 175l0 -68.75l160 0l0 68.75l-160 0zm0 175l0 -68.75l160 0l0 68.75l-160 0zm463.75 -513.75l-210 0l0 -185l210 0l0 185zm-185 163.75l0 -68.75l160 0l0 68.75l-160 0zm0 175l0 -68.75l160 0l0 68.75l-160 0zm0 175l0 -68.75l160 0l0 68.75l-160 0z"/></svg>