<svg height="1000px" width="785px" xmlns="http://www.w3.org/2000/svg">
  <g>
    <path d="M554 201.5c0 0 178 0 178 0c29 0 53 24 53 53c0 0 0 88 0 88c0 29 -24 53 -53 53c0 0 -80 0 -80 0c0 0 0 391 0 391c0 37 -17 55 -56 55c0 0 -407 0 -407 0c-36 0 -56 -18 -56 -55c0 0 0 -391 0 -391c0 0 -80 0 -80 0c-29 0 -53 -24 -53 -53c0 0 0 -88 0 -88c0 -29 24 -53 53 -53c0 0 178 0 178 0c0 0 0 -4 0 -4c0 -21 18 -39 40 -39c0 0 9 0 9 0c22 0 39 18 39 39c0 0 0 4 0 4c0 0 148 0 148 0c0 0 0 -4 0 -4c0 -21 17 -39 38 -39c0 0 10 0 10 0c22 0 39 18 39 39c0 0 0 4 0 4c0 0 0 0 0 0m-257 577c19 0 35 -16 35 -35c0 -20 -16 -36 -35 -36c-21 0 -37 16 -37 36c0 19 16 35 37 35c0 0 0 0 0 0m0 -91c19 0 35 -16 35 -36c0 -19 -16 -35 -35 -35c-21 0 -37 16 -37 35c0 20 16 36 37 36c0 0 0 0 0 0m0 -92c19 0 35 -15 35 -36c0 -19 -16 -35 -35 -35c-21 0 -37 16 -37 35c0 21 16 36 37 36c0 0 0 0 0 0m0 -92c19 0 35 -16 35 -35c0 -20 -16 -36 -35 -36c-21 0 -37 16 -37 36c0 19 16 35 37 35c0 0 0 0 0 0m96 275c19 0 35 -16 35 -35c0 -20 -16 -36 -35 -36c-20 0 -36 16 -36 36c0 19 16 35 36 35c0 0 0 0 0 0m0 -91c19 0 35 -16 35 -36c0 -19 -16 -35 -35 -35c-20 0 -36 16 -36 35c0 20 16 36 36 36c0 0 0 0 0 0m0 -92c19 0 35 -15 35 -36c0 -19 -16 -35 -35 -35c-20 0 -36 16 -36 35c0 21 16 36 36 36c0 0 0 0 0 0m0 -92c19 0 35 -16 35 -35c0 -20 -16 -36 -35 -36c-20 0 -36 16 -36 36c0 19 16 35 36 35c0 0 0 0 0 0m96 275c21 0 36 -16 36 -35c0 -20 -15 -36 -36 -36c-20 0 -36 16 -36 36c0 19 16 35 36 35c0 0 0 0 0 0m0 -91c21 0 36 -16 36 -36c0 -19 -15 -35 -36 -35c-20 0 -36 16 -36 35c0 20 16 36 36 36c0 0 0 0 0 0m0 -92c21 0 36 -15 36 -36c0 -19 -15 -35 -36 -35c-20 0 -36 16 -36 35c0 21 16 36 36 36c0 0 0 0 0 0m0 -92c21 0 36 -16 36 -35c0 -20 -15 -36 -36 -36c-20 0 -36 16 -36 36c0 19 16 35 36 35c0 0 0 0 0 0" />
  </g>
</svg>