<svg height="1000px" width="729px" xmlns="http://www.w3.org/2000/svg">
  <g>
    <path d="M443 560.5c0 43 -35 78 -78 78c-43 0 -79 -35 -79 -78c0 -43 36 -78 79 -78c43 0 78 35 78 78c0 0 0 0 0 0m-257 -290c0 0 543 0 543 0c0 0 0 507 0 507c0 0 -729 0 -729 0c0 0 0 -507 0 -507c0 0 114 0 114 0c0 0 0 -48 0 -48c0 0 72 0 72 0c0 0 0 48 0 48c0 0 0 0 0 0m314 290c0 -75 -61 -136 -135 -136c-75 0 -136 61 -136 136c0 75 61 136 136 136c74 0 135 -61 135 -136c0 0 0 0 0 0m192 -101c0 0 0 -152 0 -152c0 0 -655 0 -655 0c0 0 0 152 0 152c0 0 200 0 200 0c30 -38 76 -62 128 -62c51 0 97 24 127 62c0 0 200 0 200 0c0 0 0 0 0 0" />
  </g>
</svg>