<svg height="1000" width="911" xmlns="http://www.w3.org/2000/svg"><path d="M553.75 575.5c0 53.75 -43.75 97.5 -97.5 97.5s-98.75 -43.75 -98.75 -97.5 45 -97.5 98.75 -97.5 97.5 43.75 97.5 97.5zm-321.25 -362.5l678.75 0l0 633.75l-911.25 0l0 -633.75l142.5 0l0 -60l90 0l0 60zm392.5 362.5c0 -93.75 -76.25 -170 -168.75 -170 -93.75 0 -170 76.25 -170 170s76.25 170 170 170c92.5 0 168.75 -76.25 168.75 -170zm240 -126.25l0 -190l-818.75 0l0 190l250 0c37.5 -47.5 95 -77.5 160 -77.5 63.75 0 121.25 30 158.75 77.5l250 0z"/></svg>