<svg height="1000px" width="647px" xmlns="http://www.w3.org/2000/svg">
  <g>
    <path d="M324 560c-32 0 -60 -28 -60 -60c0 -34 27 -61 60 -61c34 0 61 27 61 61c0 32 -27 60 -61 60c0 0 0 0 0 0m0 -91c-18 0 -30 13 -30 31c0 18 12 30 30 30c18 0 31 -12 31 -30c0 -18 -13 -31 -31 -31c0 0 0 0 0 0m-1 -292c179 0 324 145 324 323c0 179 -145 323 -324 323c-178 0 -323 -144 -323 -323c0 -178 145 -323 323 -323c0 0 0 0 0 0m-235 503c8 11 17 20 26 30c19 19 41 35 64 48c0 0 73 -138 73 -138c21 13 46 20 73 20c79 0 140 -62 140 -140c0 -38 -15 -73 -39 -98c0 0 132 -84 132 -84c-7 -10 -15 -19 -24 -27c-20 -20 -41 -36 -65 -50c0 0 -73 138 -73 138c-20 -12 -45 -19 -71 -19c-78 0 -140 62 -140 140c0 37 14 71 37 96c0 0 -133 84 -133 84" />
  </g>
</svg>