<svg height="1000" width="809" xmlns="http://www.w3.org/2000/svg"><path d="M405 574.75c-40 0 -75 -35 -75 -75 0 -42.5 33.75 -76.25 75 -76.25 42.5 0 76.25 33.75 76.25 76.25 0 40 -33.75 75 -76.25 75zm0 -113.75c-22.5 0 -37.5 16.25 -37.5 38.75s15 37.5 37.5 37.5 38.75 -15 38.75 -37.5 -16.25 -38.75 -38.75 -38.75zm-1.25 -365c223.75 0 405 181.25 405 403.75 0 223.75 -181.25 403.75 -405 403.75 -222.5 0 -403.75 -180 -403.75 -403.75 0 -222.5 181.25 -403.75 403.75 -403.75zm-293.75 628.75c10 13.75 21.25 25 32.5 37.5 23.75 23.75 51.25 43.75 80 60l91.25 -172.5c26.25 16.25 57.5 25 91.25 25 98.75 0 175 -77.5 175 -175 0 -47.5 -18.75 -91.25 -48.75 -122.5l165 -105c-8.75 -12.5 -18.75 -23.75 -30 -33.75 -25 -25 -51.25 -45 -81.25 -62.5l-91.25 172.5c-25 -15 -56.25 -23.75 -88.75 -23.75 -97.5 0 -175 77.5 -175 175 0 46.25 17.5 88.75 46.25 120z"/></svg>