<svg height="1000px" width="621px" xmlns="http://www.w3.org/2000/svg">
  <g>
    <path d="M68 181.01629408867322c0 0 486 0 486 0c46 0 67 21 67 68c0 0 0 310 0 310c0 44 -21 65 -67 65c0 0 -219 0 -219 0c0 0 -242 195 -242 195c0 0 50 -195 50 -195c0 0 -75 0 -75 0c-46 0 -68 -21 -68 -67c0 0 0 -308 0 -308c0 -47 22 -69 68 -68c0 0 0 0 0 0m60 126c0 0 0 66 0 66c0 0 365 0 365 0c0 0 0 -66 0 -66c0 0 -365 0 -365 0c0 0 0 0 0 0m365 191c0 0 0 -66 0 -66c0 0 -365 0 -365 0c0 0 0 66 0 66c0 0 365 0 365 0c0 0 0 0 0 0" />
  </g>
</svg>