<svg height="1000" width="813" xmlns="http://www.w3.org/2000/svg"><path d="M406.25 93.5c223.75 0 406.25 181.25 406.25 406.25 0 223.75 -182.5 406.25 -406.25 406.25 -225 0 -406.25 -182.5 -406.25 -406.25 0 -225 181.25 -406.25 406.25 -406.25zm0 722.5c175 0 316.25 -142.5 316.25 -317.5s-141.25 -316.25 -316.25 -316.25 -317.5 141.25 -317.5 316.25 142.5 317.5 317.5 317.5zm107.5 -267.5l-115 0c-13.75 0 -25 -5 -32.5 -15l-131.25 -143.75c-38.75 -41.25 25 -101.25 65 -61.25l117.5 130l96.25 0c61.25 0 55 90 0 90z"/></svg>