<svg height="1000" width="813" xmlns="http://www.w3.org/2000/svg"><path d="M406.25 93.5c223.75 0 406.25 181.25 406.25 406.25 0 223.75 -182.5 406.25 -406.25 406.25 -225 0 -406.25 -182.5 -406.25 -406.25 0 -225 181.25 -406.25 406.25 -406.25zm0 722.5c175 0 316.25 -142.5 316.25 -317.5s-141.25 -316.25 -316.25 -316.25 -317.5 141.25 -317.5 316.25 142.5 317.5 317.5 317.5zm120 -267.5l-127.5 0c-13.75 0 -25 -5 -32.5 -15l-143.75 -156.25c-38.75 -41.25 25 -101.25 65 -61.25l130 142.5l108.75 0c61.25 0 55 90 0 90zm-145 -287.5c0 -12.5 11.25 -23.75 23.75 -23.75s23.75 11.25 23.75 23.75 -11.25 23.75 -23.75 23.75 -23.75 -11.25 -23.75 -23.75zm166.25 65c0 -12.5 11.25 -23.75 23.75 -23.75s23.75 11.25 23.75 23.75 -11.25 23.75 -23.75 23.75 -23.75 -11.25 -23.75 -23.75zm73.75 171.25c0 -12.5 11.25 -23.75 23.75 -23.75s23.75 11.25 23.75 23.75 -11.25 23.75 -23.75 23.75 -23.75 -11.25 -23.75 -23.75zm-66.25 167.5c0 -12.5 11.25 -23.75 23.75 -23.75s23.75 11.25 23.75 23.75 -11.25 23.75 -23.75 23.75 -23.75 -11.25 -23.75 -23.75zm-175 72.5c0 -12.5 11.25 -23.75 23.75 -23.75s23.75 11.25 23.75 23.75 -11.25 23.75 -23.75 23.75 -23.75 -11.25 -23.75 -23.75zm-162.5 -65c0 -12.5 11.25 -23.75 23.75 -23.75s23.75 11.25 23.75 23.75 -11.25 23.75 -23.75 23.75 -23.75 -11.25 -23.75 -23.75zm-75 -175c0 -12.5 11.25 -23.75 23.75 -23.75s23.75 11.25 23.75 23.75 -11.25 23.75 -23.75 23.75 -23.75 -11.25 -23.75 -23.75z"/></svg>