<svg height="1000px" width="650px" xmlns="http://www.w3.org/2000/svg">
  <g>
    <path d="M325 175c179 0 325 145 325 325c0 179 -146 325 -325 325c-180 0 -325 -146 -325 -325c0 -180 145 -325 325 -325c0 0 0 0 0 0m0 578c140 0 253 -114 253 -254c0 -140 -113 -253 -253 -253c-140 0 -254 113 -254 253c0 140 114 254 254 254c0 0 0 0 0 0m96 -214c0 0 -102 0 -102 0c-11 0 -20 -4 -26 -12c0 0 -115 -125 -115 -125c-31 -33 20 -81 52 -49c0 0 104 114 104 114c0 0 87 0 87 0c49 0 44 72 0 72c0 0 0 0 0 0m-116 -230c0 -10 9 -19 19 -19c10 0 19 9 19 19c0 10 -9 19 -19 19c-10 0 -19 -9 -19 -19c0 0 0 0 0 0m133 52c0 -10 9 -19 19 -19c10 0 19 9 19 19c0 10 -9 19 -19 19c-10 0 -19 -9 -19 -19c0 0 0 0 0 0m59 137c0 -10 9 -19 19 -19c10 0 19 9 19 19c0 10 -9 19 -19 19c-10 0 -19 -9 -19 -19c0 0 0 0 0 0m-53 134c0 -10 9 -19 19 -19c10 0 19 9 19 19c0 10 -9 19 -19 19c-10 0 -19 -9 -19 -19c0 0 0 0 0 0m-140 58c0 -10 9 -19 19 -19c10 0 19 9 19 19c0 10 -9 19 -19 19c-10 0 -19 -9 -19 -19c0 0 0 0 0 0m-130 -52c0 -10 9 -19 19 -19c10 0 19 9 19 19c0 10 -9 19 -19 19c-10 0 -19 -9 -19 -19c0 0 0 0 0 0m-60 -140c0 -10 9 -19 19 -19c10 0 19 9 19 19c0 10 -9 19 -19 19c-10 0 -19 -9 -19 -19c0 0 0 0 0 0" />
  </g>
</svg>