<svg height="1000px" width="499px" xmlns="http://www.w3.org/2000/svg">
  <g>
    <path d="M0 196c0 0 335 0 335 0c0 0 164 168 164 168c0 0 0 440 0 440c0 0 -499 0 -499 0c0 0 0 -608 0 -608c0 0 0 0 0 0m72 72c0 0 0 464 0 464c0 0 355 0 355 0c0 0 0 -344 0 -344c0 0 -129 0 -129 0c0 0 0 -120 0 -120c0 0 -226 0 -226 0c0 0 0 0 0 0m49 201c0 0 254 0 254 0c0 0 0 28 0 28c0 0 -254 0 -254 0c0 0 0 -28 0 -28c0 0 0 0 0 0m0 80c0 0 254 0 254 0c0 0 0 28 0 28c0 0 -254 0 -254 0c0 0 0 -28 0 -28c0 0 0 0 0 0m0 80c0 0 254 0 254 0c0 0 0 28 0 28c0 0 -254 0 -254 0c0 0 0 -28 0 -28c0 0 0 0 0 0" />
  </g>
</svg>