<svg height="1000" width="1126" xmlns="http://www.w3.org/2000/svg"><path d="M0 507.25c373.75 0 557.5 -432.5 931.25 -433.75 63.75 138.75 130 278.75 195 418.75 -373.75 0 -531.25 402.5 -931.25 433.75 -65 -140 -130 -278.75 -195 -418.75zm120 66.25c42.5 91.25 85 181.25 127.5 272.5 106.25 -20 196.25 -72.5 282.5 -136.25 -48.75 -18.75 -85 -58.75 -106.25 -103.75 -23.75 -52.5 -27.5 -110 -20 -167.5 -86.25 62.5 -176.25 116.25 -283.75 135zm886.25 -147.5c-43.75 -91.25 -85 -182.5 -127.5 -272.5 -106.25 20 -197.5 72.5 -283.75 137.5 50 17.5 85 58.75 106.25 102.5 23.75 52.5 28.75 110 20 167.5 86.25 -63.75 177.5 -116.25 285 -135zm-657.5 305c-6.25 -12.5 -11.25 -23.75 -17.5 -36.25 -2.5 1.25 -6.25 2.5 -10 2.5 1.25 13.75 3.75 26.25 6.25 40 7.5 -1.25 15 -2.5 21.25 -6.25zm27.5 -22.5c3.75 -6.25 7.5 -13.75 11.25 -21.25 -13.75 -3.75 -26.25 -7.5 -38.75 -12.5 -1.25 3.75 -3.75 7.5 -5 10 10 7.5 21.25 16.25 32.5 23.75zm-83.75 22.5c5 -12.5 8.75 -23.75 13.75 -35 -3.75 -1.25 -7.5 -3.75 -8.75 -5 -8.75 10 -17.5 18.75 -26.25 28.75 6.25 5 13.75 10 21.25 11.25zm96.25 -80c-1.25 -7.5 -2.5 -15 -5 -22.5l-1.25 0c-11.25 7.5 -22.5 13.75 -35 20l0 1.25c2.5 2.5 2.5 6.25 2.5 10 15 -2.5 26.25 -5 38.75 -8.75zm-138.75 41.25c13.75 -5 25 -8.75 37.5 -15 -1.25 -3.75 -2.5 -5 -2.5 -8.75 -13.75 1.25 -28.75 1.25 -42.5 1.25 1.25 7.5 3.75 15 7.5 22.5zm87.5 -55c7.5 -11.25 16.25 -22.5 23.75 -33.75 -6.25 -5 -12.5 -8.75 -18.75 -10 -5 12.5 -10 25 -13.75 38.75 2.5 1.25 6.25 3.75 8.75 5zm-51.25 16.25c2.5 -2.5 3.75 -6.25 5 -10 -10 -7.5 -20 -16.25 -31.25 -25 -6.25 6.25 -8.75 11.25 -11.25 20 12.5 5 26.25 10 37.5 15zm27.5 -22.5c-1.25 -13.75 -3.75 -26.25 -5 -40 -7.5 1.25 -15 3.75 -22.5 6.25 3.75 7.5 5 11.25 8.75 18.75 -3.75 -7.5 -5 -11.25 -8.75 -18.75 6.25 12.5 11.25 25 17.5 37.5 3.75 -2.5 6.25 -2.5 10 -3.75zm480 -236.25c-13.75 -32.5 -28.75 -62.5 -43.75 -93.75 -7.5 3.75 -12.5 6.25 -18.75 11.25 15 31.25 27.5 62.5 42.5 93.75 7.5 -5 11.25 -7.5 20 -11.25zm87.5 -42.5c-13.75 -30 -30 -61.25 -43.75 -92.5 -7.5 2.5 -11.25 5 -20 8.75 15 30 30 61.25 43.75 91.25 8.75 -2.5 12.5 -3.75 20 -7.5zm-43.75 20c-15 -32.5 -30 -62.5 -45 -93.75 -7.5 3.75 -11.25 6.25 -18.75 10 15 30 30 61.25 43.75 92.5 7.5 -2.5 11.25 -5 20 -8.75z"/></svg>