<svg height="1000px" width="901px" xmlns="http://www.w3.org/2000/svg">
  <g>
    <path d="M0 506c299 0 446 -346 745 -347c51 111 104 223 156 335c-299 0 -425 322 -745 347c-52 -112 -104 -223 -156 -335c0 0 0 0 0 0m96 53c34 73 68 145 102 218c85 -16 157 -58 226 -109c-39 -15 -68 -47 -85 -83c-19 -42 -22 -88 -16 -134c-69 50 -141 93 -227 108c0 0 0 0 0 0m709 -118c-35 -73 -68 -146 -102 -218c-85 16 -158 58 -227 110c40 14 68 47 85 82c19 42 23 88 16 134c69 -51 142 -93 228 -108c0 0 0 0 0 0m-526 244c-5 -10 -9 -19 -14 -29c-2 1 -5 2 -8 2c1 11 3 21 5 32c6 -1 12 -2 17 -5c0 0 0 0 0 0c0 0 0 0 0 0m22 -18c3 -5 6 -11 9 -17c-11 -3 -21 -6 -31 -10c-1 3 -3 6 -4 8c8 6 17 13 26 19c0 0 0 0 0 0m-67 18c4 -10 7 -19 11 -28c-3 -1 -6 -3 -7 -4c-7 8 -14 15 -21 23c5 4 11 8 17 9c0 0 0 0 0 0m77 -64c-1 -6 -2 -12 -4 -18c0 0 -1 0 -1 0c0 0 0 0 0 0c-9 6 -18 11 -28 16c0 0 0 1 0 1c2 2 2 5 2 8c12 -2 21 -4 31 -7c0 0 0 0 0 0m-111 33c11 -4 20 -7 30 -12c-1 -3 -2 -4 -2 -7c-11 1 -23 1 -34 1c1 6 3 12 6 18c0 0 0 0 0 0c0 0 0 0 0 0m70 -44c6 -9 13 -18 19 -27c-5 -4 -10 -7 -15 -8c-4 10 -8 20 -11 31c2 1 5 3 7 4c0 0 0 0 0 0m-41 13c2 -2 3 -5 4 -8c-8 -6 -16 -13 -25 -20c-5 5 -7 9 -9 16c10 4 21 8 30 12c0 0 0 0 0 0m22 -18c-1 -11 -3 -21 -4 -32c-6 1 -12 3 -18 5c0 0 0 0 0 0c0 0 0 0 0 0c3 6 4 9 7 15c-3 -6 -4 -9 -7 -15c5 10 9 20 14 30c0 0 0 0 0 0c3 -2 5 -2 8 -3c0 0 0 0 0 0m384 -189c-11 -26 -23 -50 -35 -75c-6 3 -10 5 -15 9c12 25 22 50 34 75c6 -4 9 -6 16 -9c0 0 0 0 0 0m70 -34c-11 -24 -24 -49 -35 -74c-6 2 -9 4 -16 7c12 24 24 49 35 73c7 -2 10 -3 16 -6c0 0 0 0 0 0m-35 16c-12 -26 -24 -50 -36 -75c-6 3 -9 5 -15 8c12 24 24 49 35 74c6 -2 9 -4 16 -7c0 0 0 0 0 0" />
  </g>
</svg>