<svg height="1000" width="796" xmlns="http://www.w3.org/2000/svg"><path d="M362.5 925.75l0 -115l-150 57.5 -15 -26.25 165 -101.25l0 -57.5l-317.5 0c-25 0 -45 -20 -45 -45 0 -23.75 17.5 -42.5 41.25 -45l0 -413.75c-23.75 -1.25 -41.25 -21.25 -41.25 -43.75 0 -25 20 -45 45 -45l326.25 0l18.75 -48.75l11.25 0l18.75 48.75l331.25 0c25 0 45 20 45 45s-20 45 -45 45l0 412.5c25 0 45 20 45 45s-20 45 -45 45l-327.5 0l0 57.5l166.25 101.25 -15 26.25 -151.25 -57.5l0 115c0 17.5 -13.75 32.5 -31.25 32.5 -18.75 0 -30 -15 -30 -32.5zm331.25 -336.25l0 -405l-595 0l0 405l595 0z"/></svg>