<svg height="1000px" width="637px" xmlns="http://www.w3.org/2000/svg">
  <g>
    <path d="M290 840.5c0 0 0 -92 0 -92c0 0 -120 46 -120 46c0 0 -12 -21 -12 -21c0 0 132 -81 132 -81c0 0 0 -46 0 -46c0 0 -254 0 -254 0c-20 0 -36 -16 -36 -36c0 -19 14 -34 33 -36c0 0 0 -331 0 -331c-19 -1 -33 -17 -33 -35c0 -20 16 -36 36 -36c0 0 261 0 261 0c0 0 15 -39 15 -39c0 0 9 0 9 0c0 0 15 39 15 39c0 0 265 0 265 0c20 0 36 16 36 36c0 20 -16 36 -36 36c0 0 0 330 0 330c20 0 36 16 36 36c0 20 -16 36 -36 36c0 0 -262 0 -262 0c0 0 0 46 0 46c0 0 133 81 133 81c0 0 -12 21 -12 21c0 0 -121 -46 -121 -46c0 0 0 92 0 92c0 14 -11 26 -25 26c-15 0 -24 -12 -24 -26c0 0 0 0 0 0m265 -269c0 0 0 -324 0 -324c0 0 -476 0 -476 0c0 0 0 324 0 324c0 0 476 0 476 0c0 0 0 0 0 0" />
  </g>
</svg>