<svg height="1000px" width="691.0267629807854px" xmlns="http://www.w3.org/2000/svg">
  <g>
    <path d="M72 309.0633523196903c0 0 0 474 0 474c0 0 355 0 355 0c0 0 0 -209 0 -209c0 0 72 -81 72 -81c0 0 0 362 0 362c0 0 -499 0 -499 0c0 0 0 -608 0 -608c0 0 433 0 433 0c0 0 -60 62 -60 62c0 0 -301 0 -301 0c0 0 0 0 0 0m599 -144c28 27 26 70 -2 99c0 0 -46 45 -46 45c0 0 14 -60 14 -60c0 0 -51 -51 -51 -51c0 0 -59 13 -59 13c0 0 45 -45 45 -45c28 -28 72 -28 99 -1c0 0 0 0 0 0m-175 79c0 -2 52 -16 60 -18c0 0 1 -1 1 -1c0 0 53 55 53 55c-3 0 -18 60 -18 60c0 0 -297 307 -297 307c0 0 -127 29 -127 29c0 0 -2 -1 -2 -1c0 0 33 -126 33 -126c0 0 297 -305 297 -305m-198 338c0 0 -36 -37 -36 -37c0 0 -28 5 -28 5c0 0 -18 17 -18 17c0 0 -8 32 -8 32c0 0 37 36 37 36c0 0 31 -7 31 -7c0 0 18 -18 18 -18c0 0 4 -28 4 -28" />
  </g>
</svg>