<svg height="1000" width="864" xmlns="http://www.w3.org/2000/svg"><path d="M90 261.158l0 592.5l443.75 0l0 -261.25l90 -101.25l0 452.5l-623.75 0l0 -760l541.25 0l-75 77.5l-376.25 0zm748.75 -180c35 33.75 32.5 87.5 -2.5 123.75l-57.5 56.25 17.5 -75 -63.75 -63.75 -73.75 16.25 56.25 -56.25c35 -35 90 -35 123.75 -1.25zm-218.75 98.75c0 -2.5 65 -20 75 -22.5l1.25 -1.25 66.25 68.75c-3.75 0 -22.5 75 -22.5 75l-371.25 383.75 -158.75 36.25 -2.5 -1.25 41.25 -157.5zm-247.5 422.5l-45 -46.25 -35 6.25 -22.5 21.25 -10 40 46.25 45 38.75 -8.75 22.5 -22.5z"/></svg>