<svg height="1000px" width="692px" xmlns="http://www.w3.org/2000/svg">
  <g>
    <path d="M593 601.5c0 0 72 0 72 0c0 0 0 155 0 155c0 26 -21 47 -47 47c0 0 -570 0 -570 0c-26 0 -48 -21 -48 -47c0 0 0 -402 0 -402c0 -27 22 -48 48 -48c0 0 183 0 183 0c0 0 0 72 0 72c0 0 -159 0 -159 0c0 0 0 353 0 353c0 0 521 0 521 0c0 0 0 -130 0 -130c0 0 0 0 0 0m-366 22c0 0 1 -309 227 -309c0 0 -27 -118 -27 -118c0 0 265 186 265 186c0 0 -265 189 -265 189c0 0 29 -133 29 -133c0 0 -199 1 -199 185c0 0 -30 0 -30 0c0 0 0 0 0 0" />
  </g>
</svg>