<svg height="1000px" width="608px" xmlns="http://www.w3.org/2000/svg">
  <g>
    <path d="M63 196.5c0 0 481 0 481 0c45 0 64 19 64 63c0 0 0 481 0 481c0 42 -19 63 -64 63c0 0 -165 0 -165 0c0 0 0 -198 0 -198c0 0 78 0 78 0c0 0 0 -95 0 -95c0 0 -78 0 -78 0c0 0 0 -63 0 -63c0 -19 4 -38 36 -38c0 0 42 0 42 0c0 0 0 -89 0 -89c0 0 -89 0 -89 0c-63 0 -96 32 -96 89c0 0 0 101 0 101c0 0 -64 0 -64 0c0 0 0 95 0 95c0 0 64 0 64 0c0 0 0 198 0 198c0 0 -209 0 -209 0c-41 0 -63 -21 -63 -63c0 0 0 -481 0 -481c0 -44 22 -63 63 -63c0 0 0 0 0 0" />
  </g>
</svg>