<svg height="1000px" width="649px" xmlns="http://www.w3.org/2000/svg">
  <g>
    <path d="M325 176c181 0 324 144 324 323c0 181 -143 325 -324 325c-180 0 -325 -144 -325 -325c0 -179 145 -323 325 -323c0 0 0 0 0 0m18 587c52 0 80 -90 93 -135c-31 3 -62 5 -93 6c0 0 0 129 0 129c0 0 0 0 0 0m-103 -65c15 36 38 65 65 65c0 0 0 -129 0 -129c-31 -1 -62 -3 -92 -6c6 26 15 49 27 70c0 0 0 0 0 0m-178 -162c13 15 46 35 106 46c-4 -25 -6 -53 -6 -80c0 -20 1 -36 3 -55c-46 -9 -73 -16 -94 -25c-7 24 -11 51 -11 77c0 13 0 26 2 37c0 0 0 0 0 0m136 -34c0 29 2 60 6 87c34 6 67 9 101 10c0 0 0 -141 0 -141c-36 -1 -72 -3 -106 -7c0 18 -1 33 -1 51c0 0 0 0 0 0m105 -265c-45 18 -83 88 -99 180c33 3 67 5 101 6c0 0 0 -186 0 -186c0 0 -2 0 -2 0c0 0 0 0 0 0m66 14c-9 -6 -19 -14 -26 -14c0 0 0 186 0 186c35 -1 68 -3 102 -6c-13 -72 -42 -135 -76 -166c0 0 0 0 0 0m-26 348c35 -1 68 -4 101 -9c5 -27 6 -58 6 -88c0 -18 0 -33 -1 -50c-34 3 -69 5 -106 6c0 0 0 141 0 141c0 0 0 0 0 0m141 -152c2 19 2 35 2 55c0 27 -2 56 -5 81c104 -17 108 -41 108 -84c0 -25 -4 -52 -12 -76c-19 8 -53 20 -93 24c0 0 0 0 0 0m79 -59c-28 -62 -81 -112 -143 -134c30 39 49 94 59 159c54 -10 76 -19 84 -25c0 0 0 0 0 0m-425 -74c-23 21 -40 47 -52 73c9 8 24 9 83 25c11 -64 30 -117 60 -157c-34 16 -64 30 -91 59c0 0 0 0 0 0m0 372c24 26 54 44 85 57c-23 -32 -38 -73 -48 -121c-40 -9 -76 -20 -100 -33c15 37 34 70 63 97c0 0 0 0 0 0m373 0c28 -26 47 -58 60 -93c-26 12 -60 22 -97 30c-11 48 -25 87 -49 120c31 -13 62 -31 86 -57c0 0 0 0 0 0" />
  </g>
</svg>