<svg height="1000" width="811" xmlns="http://www.w3.org/2000/svg"><path d="M406.25 95c226.25 0 405 180 405 403.75 0 226.25 -178.75 406.25 -405 406.25 -225 0 -406.25 -180 -406.25 -406.25 0 -223.75 181.25 -403.75 406.25 -403.75zm22.5 733.75c65 0 100 -112.5 116.25 -168.75 -38.75 3.75 -77.5 6.25 -116.25 7.5l0 161.25zm-128.75 -81.25c18.75 45 47.5 81.25 81.25 81.25l0 -161.25c-38.75 -1.25 -77.5 -3.75 -115 -7.5 7.5 32.5 18.75 61.25 33.75 87.5zm-222.5 -202.5c16.25 18.75 57.5 43.75 132.5 57.5 -5 -31.25 -7.5 -66.25 -7.5 -100 0 -25 1.25 -45 3.75 -68.75 -57.5 -11.25 -91.25 -20 -117.5 -31.25 -8.75 30 -13.75 63.75 -13.75 96.25 0 16.25 0 32.5 2.5 46.25zm170 -42.5c0 36.25 2.5 75 7.5 108.75 42.5 7.5 83.75 11.25 126.25 12.5l0 -176.25c-45 -1.25 -90 -3.75 -132.5 -8.75 0 22.5 -1.25 41.25 -1.25 63.75zm131.25 -331.25c-56.25 22.5 -103.75 110 -123.75 225 41.25 3.75 83.75 6.25 126.25 7.5l0 -232.5l-2.5 0zm82.5 17.5c-11.25 -7.5 -23.75 -17.5 -32.5 -17.5l0 232.5c43.75 -1.25 85 -3.75 127.5 -7.5 -16.25 -90 -52.5 -168.75 -95 -207.5zm-32.5 435c43.75 -1.25 85 -5 126.25 -11.25 6.25 -33.75 7.5 -72.5 7.5 -110 0 -22.5 0 -41.25 -1.25 -62.5 -42.5 3.75 -86.25 6.25 -132.5 7.5l0 176.25zm176.25 -190c2.5 23.75 2.5 43.75 2.5 68.75 0 33.75 -2.5 70 -6.25 101.25 130 -21.25 135 -51.25 135 -105 0 -31.25 -5 -65 -15 -95 -23.75 10 -66.25 25 -116.25 30zm98.75 -73.75c-35 -77.5 -101.25 -140 -178.75 -167.5 37.5 48.75 61.25 117.5 73.75 198.75 67.5 -12.5 95 -23.75 105 -31.25zm-531.25 -92.5c-28.75 26.25 -50 58.75 -65 91.25 11.25 10 30 11.25 103.75 31.25 13.75 -80 37.5 -146.25 75 -196.25 -42.5 20 -80 37.5 -113.75 73.75zm0 465c30 32.5 67.5 55 106.25 71.25 -28.75 -40 -47.5 -91.25 -60 -151.25 -50 -11.25 -95 -25 -125 -41.25 18.75 46.25 42.5 87.5 78.75 121.25zm466.25 0c35 -32.5 58.75 -72.5 75 -116.25 -32.5 15 -75 27.5 -121.25 37.5 -13.75 60 -31.25 108.75 -61.25 150 38.75 -16.25 77.5 -38.75 107.5 -71.25z"/></svg>