<svg height="1000px" width="776px" xmlns="http://www.w3.org/2000/svg">
  <g>
    <path d="M0 797.5c0 0 0 -595 0 -595c0 0 776 0 776 0c0 0 0 595 0 595c0 0 -776 0 -776 0c0 0 0 0 0 0m415 -361c0 0 0 127 0 127c0 0 127 0 127 0c0 0 0 -127 0 -127c0 0 -127 0 -127 0c0 0 0 0 0 0m0 307c0 0 127 0 127 0c0 0 0 -126 0 -126c0 0 -127 0 -127 0c0 0 0 126 0 126c0 0 0 0 0 0m127 -487c0 0 -127 0 -127 0c0 0 0 126 0 126c0 0 127 0 127 0c0 0 0 -126 0 -126c0 0 0 0 0 0m180 307c0 0 0 -127 0 -127c0 0 -126 0 -126 0c0 0 0 127 0 127c0 0 126 0 126 0c0 0 0 0 0 0m-126 180c0 0 126 0 126 0c0 0 0 -126 0 -126c0 0 -126 0 -126 0c0 0 0 126 0 126c0 0 0 0 0 0m126 -361c0 0 0 -126 0 -126c0 0 -126 0 -126 0c0 0 0 126 0 126c0 0 126 0 126 0c0 0 0 0 0 0m-668 54c0 0 0 127 0 127c0 0 127 0 127 0c0 0 0 -127 0 -127c0 0 -127 0 -127 0c0 0 0 0 0 0m0 307c0 0 127 0 127 0c0 0 0 -126 0 -126c0 0 -127 0 -127 0c0 0 0 126 0 126c0 0 0 0 0 0m127 -487c0 0 -127 0 -127 0c0 0 0 126 0 126c0 0 127 0 127 0c0 0 0 -126 0 -126c0 0 0 0 0 0m180 307c0 0 0 -127 0 -127c0 0 -126 0 -126 0c0 0 0 127 0 127c0 0 126 0 126 0c0 0 0 0 0 0m-126 180c0 0 126 0 126 0c0 0 0 -126 0 -126c0 0 -126 0 -126 0c0 0 0 126 0 126c0 0 0 0 0 0m126 -361c0 0 0 -126 0 -126c0 0 -126 0 -126 0c0 0 0 126 0 126c0 0 126 0 126 0c0 0 0 0 0 0" />
  </g>
</svg>