<svg width="650" height="1000" xmlns="http://www.w3.org/2000/svg">
 <g>
  <path d="M324,286c-84,0 -128,46 -128,130c0,0 104,0 104,0c0,-31 7,-46 23,-46c15,0 22,15 22,46c0,39 -19,53 -56,53c-3,0 -9,0 -16,-1c0,0 0,98 0,98c0,0 104,0 104,0c0,0 0,-41 0,-41c51,-13 77,-50 77,-109c0,-77 -55,-130 -130,-130c0,0 0,0 0,0m1,324c-33,0 -61,28 -61,62c0,33 28,62 61,62c33,0 61,-29 61,-62c0,-33 -28,-62 -61,-62c0,0 0,0 0,0m0,-435c179,0 325,145 325,325c0,179 -146,325 -325,325c-180,0 -325,-146 -325,-325c0,-180 145,-325 325,-325c0,0 0,0 0,0"/>
  <title>Layer 1</title>
 </g>
</svg>
