<svg height="1000px" width="929px" xmlns="http://www.w3.org/2000/svg">
  <g>
    <path d="M708 320c0 0 221 0 221 0c0 0 0 72 0 72c0 0 -929 0 -929 0c0 0 0 -72 0 -72c0 0 438 0 438 0c0 0 0 -138 0 -138c0 0 270 0 270 0c0 0 0 138 0 138c0 0 0 0 0 0m-622 107c0 0 755 0 755 0c0 0 0 391 0 391c0 0 -455 0 -455 0c0 0 0 -240 0 -240c0 0 -136 0 -136 0c0 0 0 240 0 240c0 0 -164 0 -164 0c0 0 0 -391 0 -391c0 0 0 0 0 0m537 196c0 0 0 -141 0 -141c0 0 -117 0 -117 0c0 0 0 141 0 141c0 0 117 0 117 0c0 0 0 0 0 0m153 0c0 0 0 -141 0 -141c0 0 -117 0 -117 0c0 0 0 141 0 141c0 0 117 0 117 0c0 0 0 0 0 0" />
  </g>
</svg>