<svg height="1000px" width="400px" xmlns="http://www.w3.org/2000/svg">
  <g>
    <path d="M200 577.5c27 0 48 21 48 48c0 27 -21 48 -48 48c-27 0 -48 -21 -48 -48c0 -27 21 -48 48 -48c0 0 0 0 0 0m140 -408c33 0 60 27 60 60c0 0 0 541 0 541c0 33 -27 60 -60 60c0 0 -280 0 -280 0c-33 0 -60 -27 -60 -60c0 0 0 -541 0 -541c0 -33 27 -60 60 -60c0 0 280 0 280 0c0 0 0 0 0 0m-140 583c70 0 127 -57 127 -127c0 -70 -57 -127 -127 -127c-69 0 -127 57 -127 127c0 70 58 127 127 127c0 0 0 0 0 0m138 -319c0 0 0 -194 0 -194c0 0 -276 0 -276 0c0 0 0 194 0 194c0 0 276 0 276 0c0 0 0 0 0 0" />
  </g>
</svg>