<svg height="1000" width="500" xmlns="http://www.w3.org/2000/svg"><path d="M250 597c33.75 0 60 26.25 60 60s-26.25 60 -60 60 -60 -26.25 -60 -60 26.25 -60 60 -60zm175 -510c41.25 0 75 33.75 75 75l0 676.25c0 41.25 -33.75 75 -75 75l-350 0c-41.25 0 -75 -33.75 -75 -75l0 -676.25c0 -41.25 33.75 -75 75 -75l350 0zm-175 728.75c87.5 0 158.75 -71.25 158.75 -158.75s-71.25 -158.75 -158.75 -158.75c-86.25 0 -158.75 71.25 -158.75 158.75s72.5 158.75 158.75 158.75zm172.5 -398.75l0 -242.5l-345 0l0 242.5l345 0z"/></svg>