<svg height="1000" width="538" xmlns="http://www.w3.org/2000/svg"><path d="M456.25 447.5c50 48.75 81.25 116.25 81.25 191.25 0 148.75 -121.25 268.75 -268.75 268.75 -148.75 0 -268.75 -120 -268.75 -268.75 0 -75 30 -142.5 80 -191.25l0 -166.25c0 -103.75 85 -188.75 188.75 -188.75s187.5 85 187.5 188.75l0 166.25zm-275 -166.25l0 103.75c55 -20 115 -20 173.75 0l0 -103.75c0 -47.5 -38.75 -87.5 -86.25 -87.5 -48.75 0 -87.5 40 -87.5 87.5zm-20 387.5l0 -60l-85 0l-12.5 30 12.5 30l85 0zm52.5 65l-42.5 -42.5 -61.25 62.5 12.5 30 30 11.25zm83.75 10l-60 0l0 85l30 12.5 30 -12.5l0 -85zm65 -52.5l-42.5 42.5 61.25 61.25 31.25 -11.25 11.25 -30zm10 -82.5l0 60l85 0l12.5 -30 -12.5 -30l-85 0zm-52.5 -66.25l42.5 42.5 61.25 -61.25 -11.25 -30 -31.25 -12.5zm-82.5 -10l60 0l0 -85l-30 -12.5 -30 12.5l0 85zm-66.25 52.5l42.5 -42.5 -61.25 -61.25 -30 11.25 -12.5 31.25z"/></svg>