<svg height="1000px" width="582px" xmlns="http://www.w3.org/2000/svg">
  <g>
    <path d="M367 416c119 0 215 96 215 214c0 119 -96 215 -215 215c-118 0 -215 -96 -215 -215c0 -61 26 -117 68 -156c0 0 0 -169 0 -169c0 -38 -31 -69 -70 -69c-38 0 -69 31 -69 69c0 0 0 104 0 104c0 0 -81 0 -81 0c0 0 0 -104 0 -104c0 -83 67 -150 150 -150c83 0 151 67 151 150c0 0 0 121 0 121c21 -7 43 -10 66 -10c0 0 0 0 0 0m-85 238c0 0 0 -48 0 -48c0 0 -68 0 -68 0c0 0 -10 24 -10 24c0 0 10 24 10 24c0 0 68 0 68 0c0 0 0 0 0 0m42 52c0 0 -34 -34 -34 -34c0 0 -49 50 -49 50c0 0 10 24 10 24c0 0 24 9 24 9c0 0 49 -49 49 -49m67 8c0 0 -48 0 -48 0c0 0 0 68 0 68c0 0 24 10 24 10c0 0 24 -10 24 -10c0 0 0 -68 0 -68c0 0 0 0 0 0m52 -42c0 0 -34 34 -34 34c0 0 49 49 49 49c0 0 25 -9 25 -9c0 0 9 -24 9 -24c0 0 -49 -50 -49 -50m8 -66c0 0 0 48 0 48c0 0 68 0 68 0c0 0 10 -24 10 -24c0 0 -10 -24 -10 -24c0 0 -68 0 -68 0c0 0 0 0 0 0m-42 -53c0 0 34 34 34 34c0 0 49 -49 49 -49c0 0 -9 -24 -9 -24c0 0 -25 -10 -25 -10c0 0 -49 49 -49 49m-66 -8c0 0 48 0 48 0c0 0 0 -68 0 -68c0 0 -24 -10 -24 -10c0 0 -24 10 -24 10c0 0 0 68 0 68c0 0 0 0 0 0m-53 42c0 0 34 -34 34 -34c0 0 -49 -49 -49 -49c0 0 -24 9 -24 9c0 0 -10 25 -10 25c0 0 49 49 49 49" />
  </g>
</svg>