<svg height="1000" width="728" xmlns="http://www.w3.org/2000/svg"><path d="M458.75 394.75c148.75 0 268.75 120 268.75 267.5 0 148.75 -120 268.75 -268.75 268.75 -147.5 0 -268.75 -120 -268.75 -268.75 0 -76.25 32.5 -146.25 85 -195l0 -211.25c0 -47.5 -38.75 -86.25 -87.5 -86.25 -47.5 0 -86.25 38.75 -86.25 86.25l0 130l-101.25 0l0 -130c0 -103.75 83.75 -187.5 187.5 -187.5s188.75 83.75 188.75 187.5l0 151.25c26.25 -8.75 53.75 -12.5 82.5 -12.5zm-106.25 297.5l0 -60l-85 0l-12.5 30 12.5 30l85 0zm52.5 65l-42.5 -42.5 -61.25 62.5 12.5 30 30 11.25zm83.75 10l-60 0l0 85l30 12.5 30 -12.5l0 -85zm65 -52.5l-42.5 42.5 61.25 61.25 31.25 -11.25 11.25 -30zm10 -82.5l0 60l85 0l12.5 -30 -12.5 -30l-85 0zm-52.5 -66.25l42.5 42.5 61.25 -61.25 -11.25 -30 -31.25 -12.5zm-82.5 -10l60 0l0 -85l-30 -12.5 -30 12.5l0 85zm-66.25 52.5l42.5 -42.5 -61.25 -61.25 -30 11.25 -12.5 31.25z"/></svg>