<svg height="1000px" width="349px" xmlns="http://www.w3.org/2000/svg">
  <g>
    <path d="M327 183c13 0 22 10 22 21c0 0 0 549 0 549c0 35 -29 64 -64 64c0 0 -221 0 -221 0c-35 0 -64 -29 -64 -64c0 0 0 -549 0 -549c0 -11 10 -21 21 -21c0 0 306 0 306 0c0 0 0 0 0 0m-27 102c0 0 -251 0 -251 0c0 0 0 195 0 195c0 0 251 0 251 0c0 0 0 -195 0 -195c0 0 0 0 0 0m-177 466c0 0 0 -44 0 -44c0 0 -74 0 -74 0c0 25 18 44 43 44c0 0 31 0 31 0c0 0 0 0 0 0m0 -63c0 0 0 -42 0 -42c0 0 -74 0 -74 0c0 0 0 42 0 42c0 0 74 0 74 0c0 0 0 0 0 0m0 -61c0 0 0 -42 0 -42c0 0 -74 0 -74 0c0 0 0 42 0 42c0 0 74 0 74 0c0 0 0 0 0 0m0 -61c0 0 0 -42 0 -42c0 0 -74 0 -74 0c0 0 0 42 0 42c0 0 74 0 74 0c0 0 0 0 0 0m87 185c0 0 0 -44 0 -44c0 0 -71 0 -71 0c0 0 0 44 0 44c0 0 71 0 71 0c0 0 0 0 0 0m0 -63c0 0 0 -42 0 -42c0 0 -71 0 -71 0c0 0 0 42 0 42c0 0 71 0 71 0c0 0 0 0 0 0m0 -61c0 0 0 -42 0 -42c0 0 -71 0 -71 0c0 0 0 42 0 42c0 0 71 0 71 0c0 0 0 0 0 0m0 -61c0 0 0 -42 0 -42c0 0 -71 0 -71 0c0 0 0 42 0 42c0 0 71 0 71 0c0 0 0 0 0 0m17 185c0 0 29 0 29 0c27 0 44 -19 44 -44c0 0 -73 0 -73 0c0 0 0 44 0 44c0 0 0 0 0 0m73 -63c0 0 0 -42 0 -42c0 0 -73 0 -73 0c0 0 0 42 0 42c0 0 73 0 73 0c0 0 0 0 0 0m0 -61c0 0 0 -42 0 -42c0 0 -73 0 -73 0c0 0 0 42 0 42c0 0 73 0 73 0c0 0 0 0 0 0m0 -61c0 0 0 -42 0 -42c0 0 -73 0 -73 0c0 0 0 42 0 42c0 0 73 0 73 0c0 0 0 0 0 0m-151 -340c-8 0 -13 6 -13 13c0 8 5 14 13 14c0 0 51 0 51 0c7 0 12 -6 12 -14c0 -7 -5 -13 -12 -13c0 0 -51 0 -51 0c0 0 0 0 0 0" />
  </g>
</svg>