<svg height="1000" width="436" xmlns="http://www.w3.org/2000/svg"><path d="M408.75 103.5c16.25 0 27.5 12.5 27.5 26.25l0 686.25c0 43.75 -36.25 80 -80 80l-276.25 0c-43.75 0 -80 -36.25 -80 -80l0 -686.25c0 -13.75 12.5 -26.25 26.25 -26.25l382.5 0zm-33.75 127.5l-313.75 0l0 243.75l313.75 0l0 -243.75zm-221.25 582.5l0 -55l-92.5 0c0 31.25 22.5 55 53.75 55l38.75 0zm0 -78.75l0 -52.5l-92.5 0l0 52.5l92.5 0zm0 -76.25l0 -52.5l-92.5 0l0 52.5l92.5 0zm0 -76.25l0 -52.5l-92.5 0l0 52.5l92.5 0zm108.75 231.25l0 -55l-88.75 0l0 55l88.75 0zm0 -78.75l0 -52.5l-88.75 0l0 52.5l88.75 0zm0 -76.25l0 -52.5l-88.75 0l0 52.5l88.75 0zm0 -76.25l0 -52.5l-88.75 0l0 52.5l88.75 0zm21.25 231.25l36.25 0c33.75 0 55 -23.75 55 -55l-91.25 0l0 55zm91.25 -78.75l0 -52.5l-91.25 0l0 52.5l91.25 0zm0 -76.25l0 -52.5l-91.25 0l0 52.5l91.25 0zm0 -76.25l0 -52.5l-91.25 0l0 52.5l91.25 0zm-188.75 -425c-10 0 -16.25 7.5 -16.25 16.25 0 10 6.25 17.5 16.25 17.5l63.75 0c8.75 0 15 -7.5 15 -17.5 0 -8.75 -6.25 -16.25 -15 -16.25l-63.75 0z"/></svg>