<svg height="1000" width="475" xmlns="http://www.w3.org/2000/svg"><path d="M237.5 880.75c27.5 0 47.5 -22.5 47.5 -47.5 0 -27.5 -20 -47.5 -47.5 -47.5s-47.5 20 -47.5 47.5c0 25 20 47.5 47.5 47.5zm-153.75 -793.75l307.5 0c50 0 83.75 33.75 83.75 81.25l0 670c0 41.25 -33.75 75 -75 75l-325 0c-41.25 0 -75 -33.75 -75 -75l0 -670c0 -47.5 33.75 -81.25 83.75 -81.25zm91.25 53.75c-8.75 0 -15 7.5 -15 16.25s6.25 16.25 15 16.25l125 0c8.75 0 15 -7.5 15 -16.25s-6.25 -16.25 -15 -16.25l-125 0zm255 607.5l0 -496.25l-385 0l0 496.25l385 0z"/></svg>