<svg height="1000px" width="380px" xmlns="http://www.w3.org/2000/svg">
  <g>
    <path d="M190 804.5c22 0 38 -18 38 -38c0 -22 -16 -38 -38 -38c-22 0 -38 16 -38 38c0 20 16 38 38 38c0 0 0 0 0 0m-123 -635c0 0 246 0 246 0c40 0 67 27 67 65c0 0 0 536 0 536c0 33 -27 60 -60 60c0 0 -260 0 -260 0c-33 0 -60 -27 -60 -60c0 0 0 -536 0 -536c0 -38 27 -65 67 -65c0 0 0 0 0 0m73 43c-7 0 -12 6 -12 13c0 7 5 13 12 13c0 0 100 0 100 0c7 0 12 -6 12 -13c0 -7 -5 -13 -12 -13c0 0 -100 0 -100 0c0 0 0 0 0 0m204 486c0 0 0 -397 0 -397c0 0 -308 0 -308 0c0 0 0 397 0 397c0 0 308 0 308 0c0 0 0 0 0 0" />
  </g>
</svg>