<svg height="1000" width="654" xmlns="http://www.w3.org/2000/svg"><path d="M237.5 472c13.75 -16.25 35 -21.25 65 -23.75l0 85c-50 -5 -75 -8.75 -75 -38.75 0 -7.5 2.5 -15 10 -22.5zm107.5 241.25l0 -91.25c58.75 5 77.5 8.75 77.5 35 0 30 -23.75 48.75 -77.5 56.25zm70 -243.75c30 16.25 36.25 23.75 36.25 37.5l7.5 3.75 45 -90 -6.25 -5c-6.25 5 -10 7.5 -13.75 7.5s-7.5 0 -12.5 -3.75c-61.25 -23.75 -90 -35 -126.25 -35l0 -17.5c0 -8.75 5 -15 20 -18.75l0 -8.75l-78.75 0l0 8.75c13.75 3.75 16.25 11.25 16.25 18.75l0 15c-96.25 3.75 -152.5 50 -152.5 122.5 0 73.75 40 100 152.5 110l0 96.25c-77.5 -7.5 -116.25 -37.5 -116.25 -63.75l-7.5 -3.75 -41.25 93.75 6.25 3.75c6.25 -3.75 8.75 -5 12.5 -5 1.25 0 6.25 0 8.75 2.5 47.5 23.75 93.75 37.5 137.5 40l0 18.75c0 10 -2.5 16.25 -16.25 20l0 8.75l78.75 0l0 -8.75c-15 -3.75 -20 -8.75 -20 -20l0 -18.75c96.25 -5 158.75 -53.75 158.75 -126.25 0 -70 -52.5 -106.25 -148.75 -115l-10 0l0 -87.5c22.5 1.25 46.25 7.5 70 20zm41.25 -181.25c116.25 50 197.5 165 197.5 300 0 181.25 -146.25 327.5 -326.25 327.5 -181.25 0 -327.5 -146.25 -327.5 -327.5 0 -135 81.25 -250 197.5 -300l-81.25 -178.75c0 -17.5 11.25 -25 27.5 -25l366.25 0c16.25 0 27.5 6.25 27.5 25z"/></svg>