<svg height="1000px" width="523px" xmlns="http://www.w3.org/2000/svg">
  <g>
    <path d="M190 477.5c11 -13 28 -17 52 -19c0 0 0 68 0 68c-40 -4 -60 -7 -60 -31c0 -6 2 -12 8 -18c0 0 0 0 0 0m86 193c0 0 0 -73 0 -73c47 4 62 7 62 28c0 24 -19 39 -62 45c0 0 0 0 0 0m56 -195c24 13 29 19 29 30c0 0 6 3 6 3c0 0 36 -72 36 -72c0 0 -5 -4 -5 -4c-5 4 -8 6 -11 6c-3 0 -6 0 -10 -3c-49 -19 -72 -28 -101 -28c0 0 0 -14 0 -14c0 -7 4 -12 16 -15c0 0 0 -7 0 -7c0 0 -63 0 -63 0c0 0 0 7 0 7c11 3 13 9 13 15c0 0 0 12 0 12c-77 3 -122 40 -122 98c0 59 32 80 122 88c0 0 0 77 0 77c-62 -6 -93 -30 -93 -51c0 0 -6 -3 -6 -3c0 0 -33 75 -33 75c0 0 5 3 5 3c5 -3 7 -4 10 -4c1 0 5 0 7 2c38 19 75 30 110 32c0 0 0 15 0 15c0 8 -2 13 -13 16c0 0 0 7 0 7c0 0 63 0 63 0c0 0 0 -7 0 -7c-12 -3 -16 -7 -16 -16c0 0 0 -15 0 -15c77 -4 127 -43 127 -101c0 -56 -42 -85 -119 -92c0 0 -8 0 -8 0c0 0 0 -70 0 -70c18 1 37 6 56 16c0 0 0 0 0 0m33 -145c93 40 158 132 158 240c0 145 -117 262 -261 262c-145 0 -262 -117 -262 -262c0 -108 65 -200 158 -240c0 0 -65 -143 -65 -143c0 -14 9 -20 22 -20c0 0 293 0 293 0c13 0 22 5 22 20c0 0 -65 143 -65 143" />
  </g>
</svg>