<svg height="1000px" width="663.8267219685229px" xmlns="http://www.w3.org/2000/svg">
  <g>
    <path d="M636 195.12767893597166c40 37 35 94 -3 132c0 0 -37 37 -37 37c0 0 28 -43 -30 -99c-51 -51 -99 -29 -99 -29c0 0 39 -39 39 -39c35 -36 96 -36 130 -2c0 0 0 0 0 0m-71 200c0 0 -394 394 -394 394c0 0 -168 41 -168 41c0 0 -3 -3 -3 -3c0 0 44 -168 44 -168c0 0 394 -392 394 -392c7 -2 24 -7 48 -2c0 0 -418 418 -418 418c0 0 -12 44 -12 44c0 0 48 48 48 48c0 0 45 -12 45 -12c0 0 20 -19 20 -19c0 0 2 -45 2 -45c0 0 -32 -32 -32 -32c0 0 383 -383 383 -383c6 5 6 5 12 12c57 56 31 99 31 99c0 0 0 0 0 0" />
  </g>
</svg>