<svg height="1000px" width="557.8416128313655px" xmlns="http://www.w3.org/2000/svg">
  <g>
    <path d="M243 532.5c0 0 48 -94 48 -94c0 0 181 -181 181 -181c11 7 16 10 27 21c11 11 14 16 21 27c0 0 -181 181 -181 181c0 0 -94 48 -94 48c0 0 -2 -2 -2 -2m-243 242c0 0 90 -355 90 -355c0 0 190 -189 190 -189c0 0 64 -18 132 0c0 0 -165 164 -165 164c0 0 -120 62 -120 62c0 0 -26 142 -26 142c33 34 51 52 78 78c0 0 141 -27 141 -27c0 0 62 -120 62 -120c0 0 167 -167 167 -167c21 71 -2 135 -2 135c0 0 -189 190 -189 190c0 0 -356 90 -356 90c0 0 -2 -3 -2 -3" />
  </g>
</svg>