<svg height="1000px" width="692px" xmlns="http://www.w3.org/2000/svg">
  <g>
    <path d="M249 377c0 0 391 0 391 0c29 0 52 24 52 52c0 0 0 323 0 323c0 28 -23 52 -52 52c0 0 -391 0 -391 0c-28 0 -52 -24 -52 -52c0 0 0 -323 0 -323c0 -28 24 -52 52 -52c0 0 0 0 0 0m363 75c0 0 -335 0 -335 0c0 0 0 277 0 277c0 0 335 0 335 0c0 0 0 -277 0 -277c0 0 0 0 0 0m-117 -145c0 0 -81 0 -81 0c0 0 0 -35 0 -35c0 0 -333 0 -333 0c0 0 0 269 0 269c0 0 46 0 46 0c0 0 0 76 0 76c0 0 -74 0 -74 0c-29 0 -53 -24 -53 -52c0 0 0 -316 0 -316c0 -29 24 -53 53 -53c0 0 390 0 390 0c29 0 52 24 52 53c0 0 0 58 0 58c0 0 0 0 0 0" />
  </g>
</svg>