<svg height="1000px" width="753px" xmlns="http://www.w3.org/2000/svg">
  <g>
    <path d="M693 329c32 0 60 28 60 62c0 0 0 293 0 293c0 34 -28 62 -60 62c0 0 -61 0 -61 0c0 0 27 122 27 122c0 0 -553 0 -553 0c0 0 22 -122 22 -122c0 0 -66 0 -66 0c-36 0 -62 -28 -62 -62c0 0 0 -293 0 -293c0 -34 26 -62 62 -62c0 0 77 0 77 0c0 0 0 -94 0 -94c0 0 27 0 27 0c0 0 0 -103 0 -103c0 0 422 0 422 0c0 0 0 103 0 103c0 0 27 0 27 0c0 0 0 94 0 94c0 0 78 0 78 0c0 0 0 0 0 0m-499 -159c0 0 0 233 0 233c0 0 366 0 366 0c0 0 0 -233 0 -233c0 0 -366 0 -366 0c0 0 0 0 0 0m-90 311c24 0 44 -19 44 -43c0 -23 -20 -43 -44 -43c-23 0 -43 20 -43 43c0 24 20 43 43 43c0 0 0 0 0 0m50 350c0 0 454 0 454 0c0 0 -38 -193 -38 -193c0 0 -387 0 -387 0c0 0 -29 193 -29 193m202 -90c0 0 -111 0 -111 0c0 0 0 -28 0 -28c0 0 111 0 111 0c0 0 0 28 0 28c0 0 0 0 0 0m158 0c0 0 -111 0 -111 0c0 0 0 -28 0 -28c0 0 111 0 111 0c0 0 0 28 0 28c0 0 0 0 0 0" />
  </g>
</svg>