<svg height="1000" width="941" xmlns="http://www.w3.org/2000/svg"><path d="M866.25 286.25c40 0 75 35 75 77.5l0 366.25c0 42.5 -35 77.5 -75 77.5l-76.25 0l33.75 152.5l-691.25 0l27.5 -152.5l-82.5 0c-45 0 -77.5 -35 -77.5 -77.5l0 -366.25c0 -42.5 32.5 -77.5 77.5 -77.5l96.25 0l0 -117.5l33.75 0l0 -128.75l527.5 0l0 128.75l33.75 0l0 117.5l97.5 0zm-623.75 -198.75l0 291.25l457.5 0l0 -291.25l-457.5 0zm-112.5 388.75c30 0 55 -23.75 55 -53.75 0 -28.75 -25 -53.75 -55 -53.75 -28.75 0 -53.75 25 -53.75 53.75 0 30 25 53.75 53.75 53.75zm62.5 437.5l567.5 0l-47.5 -241.25l-483.75 0zm252.5 -112.5l-138.75 0l0 -35l138.75 0l0 35zm197.5 0l-138.75 0l0 -35l138.75 0l0 35z"/></svg>