<svg height="1000" width="813" xmlns="http://www.w3.org/2000/svg"><path d="M405 232.25c-105 0 -160 57.5 -160 162.5l130 0c0 -38.75 8.75 -57.5 28.75 -57.5 18.75 0 27.5 18.75 27.5 57.5 0 48.75 -23.75 66.25 -70 66.25 -3.75 0 -11.25 0 -20 -1.25l0 122.5l130 0l0 -51.25c63.75 -16.25 96.25 -62.5 96.25 -136.25 0 -96.25 -68.75 -162.5 -162.5 -162.5zm1.25 405c-41.25 0 -76.25 35 -76.25 77.5 0 41.25 35 77.5 76.25 77.5s76.25 -36.25 76.25 -77.5 -35 -77.5 -76.25 -77.5zm0 -543.75c223.75 0 406.25 181.25 406.25 406.25 0 223.75 -182.5 406.25 -406.25 406.25 -225 0 -406.25 -182.5 -406.25 -406.25 0 -225 181.25 -406.25 406.25 -406.25z"/></svg>