<svg height="1000px" width="495px" xmlns="http://www.w3.org/2000/svg">
  <g>
    <path d="M149 454.5c0 0 -91 -93 -91 -93c0 0 -58 59 -58 59c0 0 0 -168 0 -168c0 0 168 0 168 0c0 0 -58 58 -58 58c0 0 92 92 92 92c0 0 -53 52 -53 52m0 91c0 0 53 53 53 53c0 0 -92 91 -92 91c0 0 58 58 58 58c0 0 -168 0 -168 0c0 0 0 -168 0 -168c0 0 58 58 58 58c0 0 91 -92 91 -92m196 -91c0 0 -52 -52 -52 -52c0 0 92 -92 92 -92c0 0 -58 -58 -58 -58c0 0 168 0 168 0c0 0 0 168 0 168c0 0 -58 -58 -58 -58c0 0 -92 92 -92 92m92 183c0 0 58 -58 58 -58c0 0 0 168 0 168c0 0 -168 0 -168 0c0 0 58 -58 58 -58c0 0 -92 -91 -92 -91c0 0 52 -53 52 -53c0 0 92 92 92 92" />
  </g>
</svg>