<svg height="1000px" width="608px" xmlns="http://www.w3.org/2000/svg">
  <g>
    <path d="M544 575.5c-44 44 -101 66 -158 66c-52 0 -103 -18 -145 -53c0 0 -41 100 -41 100c0 0 -104 104 -104 104c-11 8 -23 12 -36 12c-33 0 -60 -29 -60 -61c0 -13 4 -26 12 -36c0 0 103 -104 103 -104c0 0 101 -41 101 -41c-35 -42 -53 -94 -53 -146c0 -121 102 -221 223 -221c120 0 222 102 222 222c0 58 -21 115 -64 158c0 0 0 0 0 0m-255 -60c27 26 62 40 97 40c74 0 136 -62 136 -138c0 -74 -63 -136 -136 -136c-75 0 -137 63 -137 136c0 36 13 71 40 98c0 0 0 0 0 0" />
  </g>
</svg>