<svg height="1000" width="760" xmlns="http://www.w3.org/2000/svg"><path d="M680 594.5c-55 55 -126.25 82.5 -197.5 82.5 -65 0 -128.75 -22.5 -181.25 -66.25l-51.25 125 -130 130c-13.75 10 -28.75 15 -45 15 -41.25 0 -75 -36.25 -75 -76.25 0 -16.25 5 -32.5 15 -45l128.75 -130 126.25 -51.25c-43.75 -52.5 -66.25 -117.5 -66.25 -182.5 0 -151.25 127.5 -276.25 278.75 -276.25 150 0 277.5 127.5 277.5 277.5 0 72.5 -26.25 143.75 -80 197.5zm-318.75 -75c33.75 32.5 77.5 50 121.25 50 92.5 0 170 -77.5 170 -172.5 0 -92.5 -78.75 -170 -170 -170 -93.75 0 -171.25 78.75 -171.25 170 0 45 16.25 88.75 50 122.5z"/></svg>