<svg height="1000px" width="683px" xmlns="http://www.w3.org/2000/svg">
  <g>
    <path d="M339 265c-25 0 -46 -21 -46 -46c0 -25 21 -46 46 -46c26 0 46 21 46 46c0 25 -20 46 -46 46c0 0 0 0 0 0m262 595c7 19 -2 40 -21 47c-4 2 -8 2 -13 2c-14 0 -28 -8 -33 -23c0 0 -11 -28 -11 -28c0 0 -182 0 -182 0c0 0 0 0 0 0c0 0 0 0 0 0c0 0 -186 0 -186 0c0 0 -11 28 -11 28c-5 15 -19 23 -33 23c-5 0 -9 0 -13 -2c-19 -7 -28 -28 -21 -47c0 0 222 -571 222 -571c0 0 34 -23 34 -23c0 0 13 0 13 0c0 0 33 23 33 23c0 0 222 571 222 571m-143 -169c0 0 -35 -89 -35 -89c0 0 -57 57 -57 57c0 0 62 61 62 61c0 0 30 -29 30 -29m-119 -306c0 0 -56 145 -56 145c0 0 112 0 112 0c0 0 -56 -145 -56 -145m70 181c0 0 -136 0 -136 0c0 0 68 67 68 67c0 0 68 -67 68 -67m-153 33c0 0 -35 89 -35 89c0 0 33 32 33 32c0 0 62 -61 62 -61c0 0 -60 -60 -60 -60m-87 223c0 0 136 0 136 0c0 0 -98 -97 -98 -97c0 0 -38 97 -38 97m172 -14c0 0 62 -62 62 -62c0 0 -62 -62 -62 -62c0 0 -62 62 -62 62c0 0 62 62 62 62m36 14c0 0 132 0 132 0c0 0 -37 -95 -37 -95c0 0 -95 95 -95 95m132 -466c0 0 -30 -29 -30 -29c21 -20 32 -49 32 -76c0 -24 -10 -51 -29 -71c0 0 28 -28 28 -28c26 29 44 65 44 103c0 35 -14 71 -45 101c0 0 0 0 0 0m107 58c0 0 -31 -31 -31 -31c35 -34 53 -80 52 -129c1 -48 -17 -95 -52 -130c0 0 30 -29 30 -29c45 44 67 103 68 162c-1 55 -20 112 -67 157c0 0 0 0 0 0m-441 -265c0 0 29 30 29 30c-21 20 -32 49 -32 75c0 26 10 52 29 71c0 0 -28 28 -28 28c-27 -27 -44 -65 -44 -102c0 -35 14 -71 46 -102c0 0 0 0 0 0m-108 -58c0 0 31 32 31 32c-35 34 -53 80 -53 129c0 48 18 94 53 129c0 0 -30 31 -30 31c-45 -45 -67 -104 -68 -163c1 -55 20 -112 67 -158c0 0 0 0 0 0" />
  </g>
</svg>