<svg height="1000" width="854" xmlns="http://www.w3.org/2000/svg"><path d="M423.75 206c-31.25 0 -57.5 -26.25 -57.5 -57.5s26.25 -57.5 57.5 -57.5c32.5 0 57.5 26.25 57.5 57.5s-25 57.5 -57.5 57.5zm327.5 743.75c8.75 23.75 -2.5 50 -26.25 58.75 -5 2.5 -10 2.5 -16.25 2.5 -17.5 0 -35 -10 -41.25 -28.75l-13.75 -35l-460 0l-13.75 35c-6.25 18.75 -23.75 28.75 -41.25 28.75 -6.25 0 -11.25 0 -16.25 -2.5 -23.75 -8.75 -35 -35 -26.25 -58.75l277.5 -713.75 42.5 -28.75l16.25 0l41.25 28.75zm-178.75 -211.25l-43.75 -111.25 -71.25 71.25 77.5 76.25zm-148.75 -382.5l-70 181.25l140 0zm87.5 226.25l-170 0l85 83.75zm-191.25 41.25l-43.75 111.25 41.25 40 77.5 -76.25zm-108.75 278.75l170 0l-122.5 -121.25zm215 -17.5l77.5 -77.5 -77.5 -77.5 -77.5 77.5zm45 17.5l165 0l-46.25 -118.75zm165 -582.5l-37.5 -36.25c26.25 -25 40 -61.25 40 -95 0 -30 -12.5 -63.75 -36.25 -88.75l35 -35c32.5 36.25 55 81.25 55 128.75 0 43.75 -17.5 88.75 -56.25 126.25zm133.75 72.5l-38.75 -38.75c43.75 -42.5 66.25 -100 65 -161.25 1.25 -60 -21.25 -118.75 -65 -162.5l37.5 -36.25c56.25 55 83.75 128.75 85 202.5 -1.25 68.75 -25 140 -83.75 196.25zm-551.25 -331.25l36.25 37.5c-26.25 25 -40 61.25 -40 93.75s12.5 65 36.25 88.75l-35 35c-33.75 -33.75 -55 -81.25 -55 -127.5 0 -43.75 17.5 -88.75 57.5 -127.5zm-135 -72.5l38.75 40c-43.75 42.5 -66.25 100 -66.25 161.25 0 60 22.5 117.5 66.25 161.25l-37.5 38.75c-56.25 -56.25 -83.75 -130 -85 -203.75 1.25 -68.75 25 -140 83.75 -197.5z"/></svg>