<svg height="1000px" width="606px" xmlns="http://www.w3.org/2000/svg">
  <g>
    <path d="M428 197c0 0 178 178 178 178c0 0 0 251 0 251c0 0 -178 177 -178 177c0 0 -251 0 -251 0c0 0 -177 -177 -177 -177c0 0 0 -251 0 -251c0 0 177 -178 177 -178c0 0 251 0 251 0c0 0 0 0 0 0m151 418c0 0 0 -229 0 -229c0 0 -162 -162 -162 -162c0 0 -229 0 -229 0c0 0 -161 162 -161 162c0 0 0 229 0 229c0 0 161 161 161 161c0 0 229 0 229 0c0 0 162 -161 162 -161m-376 -357c0 0 200 0 200 0c0 0 142 142 142 142c0 0 0 201 0 201c0 0 -142 141 -142 141c0 0 -200 0 -200 0c0 0 -142 -141 -142 -141c0 0 0 -201 0 -201c0 0 142 -142 142 -142" />
  </g>
</svg>