<svg height="1000" width="816" xmlns="http://www.w3.org/2000/svg"><path d="M665.245 309.376l-10 232.5 -242.5 420c-11.25 20 -36.25 27.5 -55 16.25l-336.25 -195c-20 -11.25 -27.5 -36.25 -16.25 -56.25l242.5 -420 197.5 -123.75 95 53.75c6.25 -17.5 5 -18.75 8.75 -36.25 8.75 -38.75 17.5 -107.5 95 -166.25 26.25 -22.5 66.25 -22.5 102.5 -3.75 20 8.75 37.5 23.75 50 40 12.5 18.75 18.75 38.75 20 57.5 -1.25 23.75 -12.5 56.25 -65 81.25 -41.25 18.75 -76.25 23.75 -108.75 27.5 -28.75 3.75 -51.25 6.25 -70 18.75zm-10 -258.75c-70 53.75 -80 115 -86.25 152.5 0 6.25 -1.25 10 -2.5 15 -1.25 6.25 0 10 -2.5 17.5 22.5 -15 46.25 -16.25 76.25 -18.75 30 -3.75 65 -8.75 102.5 -26.25 35 -15 52.5 -37.5 53.75 -62.5 0 -28.75 -21.25 -58.75 -52.5 -76.25 -1.25 -1.25 -3.75 -2.5 -6.25 -3.75 -30 -15 -60 -15 -82.5 2.5zm-218.75 400c42.5 23.75 97.5 10 121.25 -32.5 20 -33.75 13.75 -75 -10 -102.5l-42.5 -26.25c-37.5 -12.5 -80 3.75 -101.25 40 -23.75 42.5 -10 96.25 32.5 121.25z"/></svg>