<svg height="1000px" width="653.1962732559819px" xmlns="http://www.w3.org/2000/svg">
  <g>
    <path d="M532.1962732559819 347.3521651266586c0 0 -8 186 -8 186c0 0 -194 336 -194 336c-9 16 -29 22 -44 13c0 0 -269 -156 -269 -156c-16 -9 -22 -29 -13 -45c0 0 194 -336 194 -336c0 0 158 -99 158 -99c0 0 76 43 76 43c5 -14 4 -15 7 -29c7 -31 14 -86 76 -133c21 -18 53 -18 82 -3c16 7 30 19 40 32c10 15 15 31 16 46c-1 19 -10 45 -52 65c-33 15 -61 19 -87 22c-23 3 -41 5 -56 15c0 0 74 43 74 43m-8 -207c-56 43 -64 92 -69 122c0 5 -1 8 -2 12c-1 5 0 8 -2 14c18 -12 37 -13 61 -15c24 -3 52 -7 82 -21c28 -12 42 -30 43 -50c0 -23 -17 -47 -42 -61c-1 -1 -3 -2 -5 -3c-24 -12 -48 -12 -66 2c0 0 0 0 0 0m-175 320c34 19 78 8 97 -26c16 -27 11 -60 -8 -82c0 0 -34 -21 -34 -21c-30 -10 -64 3 -81 32c-19 34 -8 77 26 97c0 0 0 0 0 0" />
  </g>
</svg>