<svg height="1000px" width="641px" xmlns="http://www.w3.org/2000/svg">
  <g>
    <path d="M128 252c0 0 0 129 0 129c0 0 -128 0 -128 0c0 0 0 -129 0 -129c0 0 128 0 128 0c0 0 0 0 0 0m0 184c0 0 0 130 0 130c0 0 -128 0 -128 0c0 0 0 -130 0 -130c0 0 128 0 128 0c0 0 0 0 0 0m0 184c0 0 0 128 0 128c0 0 -128 0 -128 0c0 0 0 -128 0 -128c0 0 128 0 128 0c0 0 0 0 0 0m513 -325c0 0 0 65 0 65c0 0 -427 0 -427 0c0 0 0 -65 0 -65c0 0 427 0 427 0c0 0 0 0 0 0m0 184c0 0 0 65 0 65c0 0 -427 0 -427 0c0 0 0 -65 0 -65c0 0 427 0 427 0c0 0 0 0 0 0m0 174c0 0 0 65 0 65c0 0 -427 0 -427 0c0 0 0 -65 0 -65c0 0 427 0 427 0c0 0 0 0 0 0" />
  </g>
</svg>