<svg height="1000" width="849" xmlns="http://www.w3.org/2000/svg"><path d="M160 190l0 161.25l-160 0l0 -161.25l160 0zm231.25 0l0 161.25l-161.25 0l0 -161.25l161.25 0zm-231.25 230l0 162.5l-160 0l0 -162.5l160 0zm231.25 0l0 162.5l-161.25 0l0 -162.5l161.25 0zm-231.25 230l0 160l-160 0l0 -160l160 0zm231.25 0l0 160l-161.25 0l0 -160l161.25 0zm228.75 -460l0 161.25l-161.25 0l0 -161.25l161.25 0zm228.75 0l0 161.25l-160 0l0 -161.25l160 0zm-228.75 228.75l0 162.5l-161.25 0l0 -162.5l161.25 0zm0 231.25l0 160l-161.25 0l0 -160l161.25 0zm228.75 -231.25l0 162.5l-160 0l0 -162.5l160 0zm0 228.75l0 162.5l-160 0l0 -162.5l160 0z"/></svg>