<svg height="1000px" width="679px" xmlns="http://www.w3.org/2000/svg">
  <g>
    <path d="M128 252c0 0 0 129 0 129c0 0 -128 0 -128 0c0 0 0 -129 0 -129c0 0 128 0 128 0c0 0 0 0 0 0m185 0c0 0 0 129 0 129c0 0 -129 0 -129 0c0 0 0 -129 0 -129c0 0 129 0 129 0c0 0 0 0 0 0m-185 184c0 0 0 130 0 130c0 0 -128 0 -128 0c0 0 0 -130 0 -130c0 0 128 0 128 0c0 0 0 0 0 0m185 0c0 0 0 130 0 130c0 0 -129 0 -129 0c0 0 0 -130 0 -130c0 0 129 0 129 0c0 0 0 0 0 0m-185 184c0 0 0 128 0 128c0 0 -128 0 -128 0c0 0 0 -128 0 -128c0 0 128 0 128 0c0 0 0 0 0 0m185 0c0 0 0 128 0 128c0 0 -129 0 -129 0c0 0 0 -128 0 -128c0 0 129 0 129 0c0 0 0 0 0 0m183 -368c0 0 0 129 0 129c0 0 -129 0 -129 0c0 0 0 -129 0 -129c0 0 129 0 129 0c0 0 0 0 0 0m183 0c0 0 0 129 0 129c0 0 -128 0 -128 0c0 0 0 -129 0 -129c0 0 128 0 128 0c0 0 0 0 0 0m-183 183c0 0 0 130 0 130c0 0 -129 0 -129 0c0 0 0 -130 0 -130c0 0 129 0 129 0c0 0 0 0 0 0m0 185c0 0 0 128 0 128c0 0 -129 0 -129 0c0 0 0 -128 0 -128c0 0 129 0 129 0c0 0 0 0 0 0m183 -185c0 0 0 130 0 130c0 0 -128 0 -128 0c0 0 0 -130 0 -130c0 0 128 0 128 0c0 0 0 0 0 0m0 183c0 0 0 130 0 130c0 0 -128 0 -128 0c0 0 0 -130 0 -130c0 0 128 0 128 0c0 0 0 0 0 0" />
  </g>
</svg>