<svg height="1000px" width="618.9623533851494px" xmlns="http://www.w3.org/2000/svg">
  <g>
    <path d="M21.962353385149427 390.5c-18 -36 -3 -73 22 -91c-58 -181 334 -83 365 -54c0 0 0 -46 0 -46c0 -13 11 -24 23 -24c0 0 163 0 163 0c13 0 24 11 24 24c0 0 0 385 0 385c0 12 -11 23 -24 23c0 0 -163 0 -163 0c-12 0 -23 -11 -23 -23c0 0 0 -26 0 -26c-79 51 -118 179 -119 184c-13 52 -42 82 -86 82c-44 0 -97 -43 -97 -137c0 -23 8 -59 23 -86c0 0 -15 0 -15 0c-58 0 -125 -28 -104 -113c-22 -39 -7 -82 11 -98c0 0 0 0 0 0m88 2c13 1 13 12 0 12c-57 0 -59 60 -7 62c11 1 11 12 0 12c-52 0 -43 66 12 66c0 0 60 0 60 0c21 0 30 13 30 26c0 24 -41 76 -41 116c0 51 24 81 40 81c17 0 27 -14 29 -31c12 -79 100 -213 176 -246c0 0 0 -181 0 -181c-107 -53 -201 -57 -246 -58c-68 -3 -102 51 -32 66c15 2 14 15 2 15c-71 0 -75 53 -23 60c0 0 0 0 0 0" />
  </g>
</svg>