<svg height="1000px" width="618.6994761064146px" xmlns="http://www.w3.org/2000/svg">
  <g>
    <path d="M597 609.5c18 36 3 73 -22 91c58 181 -334 83 -365 54c0 0 0 46 0 46c0 13 -11 24 -23 24c0 0 -164 0 -164 0c-12 0 -23 -11 -23 -24c0 0 0 -385 0 -385c0 -12 11 -23 23 -23c0 0 164 0 164 0c12 0 23 11 23 23c0 0 0 26 0 26c78 -51 118 -179 119 -184c12 -52 42 -82 85 -82c45 0 98 44 98 137c0 23 -9 59 -23 86c0 0 14 0 14 0c59 0 126 28 104 113c23 39 8 82 -10 98c0 0 0 0 0 0m-88 -1c-13 -2 -13 -13 0 -13c57 0 59 -60 7 -62c-11 -1 -11 -12 0 -12c52 0 43 -66 -13 -66c0 0 -59 0 -59 0c-21 0 -31 -13 -31 -26c0 -24 42 -76 42 -116c0 -51 -25 -81 -41 -81c-17 0 -26 14 -28 31c-12 80 -100 213 -176 246c0 0 0 181 0 181c107 53 201 57 246 59c68 2 102 -52 32 -67c-15 -2 -14 -15 -3 -15c71 0 76 -53 24 -59c0 0 0 0 0 0" />
  </g>
</svg>