<svg height="1000" width="773" xmlns="http://www.w3.org/2000/svg"><path d="M746.25 637c22.5 45 3.75 91.25 -27.5 113.75 72.5 226.25 -417.5 103.75 -456.25 67.5l0 57.5c0 16.25 -13.75 30 -28.75 30l-205 0c-15 0 -28.75 -13.75 -28.75 -30l0 -481.25c0 -15 13.75 -28.75 28.75 -28.75l205 0c15 0 28.75 13.75 28.75 28.75l0 32.5c97.5 -63.75 147.5 -223.75 148.75 -230 15 -65 52.5 -102.5 106.25 -102.5 56.25 0 122.5 55 122.5 171.25 0 28.75 -11.25 73.75 -28.75 107.5l17.5 0c73.75 0 157.5 35 130 141.25 28.75 48.75 10 102.5 -12.5 122.5zm-110 -1.25c-16.25 -2.5 -16.25 -16.25 0 -16.25 71.25 0 73.75 -75 8.75 -77.5 -13.75 -1.25 -13.75 -15 0 -15 65 0 53.75 -82.5 -16.25 -82.5l-73.75 0c-26.25 0 -38.75 -16.25 -38.75 -32.5 0 -30 52.5 -95 52.5 -145 0 -63.75 -31.25 -101.25 -51.25 -101.25 -21.25 0 -32.5 17.5 -35 38.75 -15 100 -125 266.25 -220 307.5l0 226.25c133.75 66.25 251.25 71.25 307.5 73.75 85 2.5 127.5 -65 40 -83.75 -18.75 -2.5 -17.5 -18.75 -3.75 -18.75 88.75 0 95 -66.25 30 -73.75z"/></svg>