<svg height="1000" width="774" xmlns="http://www.w3.org/2000/svg"><path d="M27.453 363.25c-22.5 -45 -3.75 -91.25 27.5 -113.75 -72.5 -226.25 417.5 -103.75 456.25 -67.5l0 -57.5c0 -16.25 13.75 -30 28.75 -30l203.75 0c16.25 0 30 13.75 30 30l0 481.25c0 15 -13.75 28.75 -30 28.75l-203.75 0c-15 0 -28.75 -13.75 -28.75 -28.75l0 -32.5c-98.75 63.75 -147.5 223.75 -148.75 230 -16.25 65 -52.5 102.5 -107.5 102.5s-121.25 -53.75 -121.25 -171.25c0 -28.75 10 -73.75 28.75 -107.5l-18.75 0c-72.5 0 -156.25 -35 -130 -141.25 -27.5 -48.75 -8.75 -102.5 13.75 -122.5zm110 2.5c16.25 1.25 16.25 15 0 15 -71.25 0 -73.75 75 -8.75 77.5 13.75 1.25 13.75 15 0 15 -65 0 -53.75 82.5 15 82.5l75 0c26.25 0 37.5 16.25 37.5 32.5 0 30 -51.25 95 -51.25 145 0 63.75 30 101.25 50 101.25 21.25 0 33.75 -17.5 36.25 -38.75 15 -98.75 125 -266.25 220 -307.5l0 -226.25c-133.75 -66.25 -251.25 -71.25 -307.5 -72.5 -85 -3.75 -127.5 63.75 -40 82.5 18.75 2.5 17.5 18.75 2.5 18.75 -88.75 0 -93.75 66.25 -28.75 75z"/></svg>