<svg height="1000" width="814" xmlns="http://www.w3.org/2000/svg"><path d="M768.75 111c23.75 0 45 20 45 45s-21.25 45 -45 45l-6.25 0l-135 687.5l-437.5 0l-133.75 -687.5l-11.25 0c-25 0 -45 -20 -45 -45s20 -45 45 -45l723.75 0zm-396.25 107.5l-18.75 -17.5l-117.5 0l-18.75 17.5 77.5 77.5zm-193.75 257.5l25 128.75 60 -60 -77.5 -76.25zm38.75 -40l77.5 77.5 77.5 -77.5 -77.5 -76.25zm186.25 32.5l-76.25 76.25 76.25 77.5 77.5 -77.5zm32.5 -32.5l76.25 77.5 77.5 -77.5 -77.5 -76.25zm-32.5 -31.25l77.5 -77.5 -77.5 -76.25 -76.25 76.25zm-217.5 -153.75l-43.75 42.5 17.5 85 26.25 26.25 77.5 -77.5zm108.75 326.25l-77.5 77.5 77.5 76.25 77.5 -76.25zm108.75 108.75l-76.25 77.5 57.5 57.5l37.5 0l58.75 -57.5zm108.75 45l77.5 -76.25 -77.5 -77.5 -76.25 77.5zm100 -117.5l25 -128.75 -16.25 -16.25 -76.25 76.25zm48.75 -247.5l12.5 -63.75 -52.5 -51.25 -76.25 76.25 76.25 77.5zm-71.25 -147.5l-18.75 -17.5l-117.5 0l-17.5 17.5 76.25 77.5zm-457.5 22.5l40 -40l-47.5 0zm96.25 487.5l17.5 92.5l75 0zm363.75 -12.5l-106.25 105l85 0zm91.25 -467.5l10 -47.5l-58.75 0z"/></svg>