<svg height="1000px" width="651px" xmlns="http://www.w3.org/2000/svg">
  <g>
    <path d="M615 189c19 0 36 16 36 36c0 20 -17 36 -36 36c0 0 -5 0 -5 0c0 0 -108 550 -108 550c0 0 -350 0 -350 0c0 0 -107 -550 -107 -550c0 0 -9 0 -9 0c-20 0 -36 -16 -36 -36c0 -20 16 -36 36 -36c0 0 579 0 579 0c0 0 0 0 0 0m-317 86c0 0 -15 -14 -15 -14c0 0 -94 0 -94 0c0 0 -15 14 -15 14c0 0 62 62 62 62c0 0 62 -62 62 -62m-155 206c0 0 20 103 20 103c0 0 48 -48 48 -48c0 0 -62 -61 -62 -61c0 0 -6 6 -6 6m31 -32c0 0 62 62 62 62c0 0 62 -62 62 -62c0 0 -62 -61 -62 -61c0 0 -62 61 -62 61m149 26c0 0 -61 61 -61 61c0 0 61 62 61 62c0 0 62 -62 62 -62c0 0 -62 -61 -62 -61m26 -26c0 0 61 62 61 62c0 0 62 -62 62 -62c0 0 -62 -61 -62 -61c0 0 -61 61 -61 61m-26 -25c0 0 62 -62 62 -62c0 0 -62 -61 -62 -61c0 0 -61 61 -61 61c0 0 61 62 61 62m-174 -123c0 0 -35 34 -35 34c0 0 14 68 14 68c0 0 21 21 21 21c0 0 62 -62 62 -62c0 0 -62 -61 -62 -61m87 261c0 0 -62 62 -62 62c0 0 62 61 62 61c0 0 62 -61 62 -61c0 0 -62 -62 -62 -62m87 87c0 0 -61 62 -61 62c0 0 46 46 46 46c0 0 30 0 30 0c0 0 47 -46 47 -46c0 0 -62 -62 -62 -62m87 36c0 0 62 -61 62 -61c0 0 -62 -62 -62 -62c0 0 -61 62 -61 62c0 0 61 61 61 61m80 -94c0 0 20 -103 20 -103c0 0 -13 -13 -13 -13c0 0 -61 61 -61 61c0 0 54 55 54 55m39 -198c0 0 10 -51 10 -51c0 0 -42 -41 -42 -41c0 0 -61 61 -61 61c0 0 61 62 61 62c0 0 32 -31 32 -31m-57 -118c0 0 -15 -14 -15 -14c0 0 -94 0 -94 0c0 0 -14 14 -14 14c0 0 61 62 61 62c0 0 62 -62 62 -62m-366 18c0 0 32 -32 32 -32c0 0 -38 0 -38 0c0 0 6 32 6 32m77 390c0 0 14 74 14 74c0 0 60 0 60 0c0 0 -74 -74 -74 -74m291 -10c0 0 -85 84 -85 84c0 0 68 0 68 0c0 0 17 -84 17 -84m73 -374c0 0 8 -38 8 -38c0 0 -47 0 -47 0c0 0 39 38 39 38" />
  </g>
</svg>