<svg height="1000" width="884" xmlns="http://www.w3.org/2000/svg"><path d="M715 190.75l168.75 0l0 21.25l-132.5 85c11.25 80 -53.75 116.25 -53.75 116.25s50 137.5 -48.75 252.5c-115 133.75 -240 85 -260 78.75 -20 -5 -18.75 8.75 -18.75 8.75 23.75 96.25 0 130 -52.5 135 -57.5 5 -47.5 -87.5 -47.5 -87.5 -98.75 87.5 -131.25 38.75 -123.75 6.25 12.5 -48.75 75 -107.5 75 -107.5 -181.25 0 -221.25 -135 -221.25 -135s87.5 22.5 147.5 10c62.5 -12.5 126.25 -60 148.75 -158.75 20 -88.75 116.25 -125 116.25 -125 0 -136.25 111.25 -178.75 176.25 -178.75 106.25 0 126.25 78.75 126.25 78.75zm-157.5 53.75c0 27.5 22.5 50 50 50s50 -22.5 50 -50 -22.5 -50 -50 -50 -50 22.5 -50 50z"/></svg>