<svg height="1000px" width="608px" xmlns="http://www.w3.org/2000/svg">
  <g>
    <path d="M63 196.5c0 0 481 0 481 0c45 0 64 19 64 63c0 0 0 481 0 481c0 42 -19 63 -64 63c0 0 -481 0 -481 0c-41 0 -63 -21 -63 -63c0 0 0 -481 0 -481c0 -44 22 -63 63 -63c0 0 0 0 0 0m345 411c0 0 -65 0 -65 0c-45 -3 -77 -33 -77 -76c0 0 0 -42 0 -42c0 0 142 0 142 0c26 0 47 -21 47 -47c0 -27 -21 -48 -47 -48c0 0 -142 0 -142 0c0 0 0 -59 0 -59c0 -26 -22 -48 -46 -48c-27 0 -47 22 -47 48c0 0 0 196 0 196c0 46 16 91 49 120c31 31 72 49 118 51c0 0 68 0 68 0c26 0 47 -21 47 -48c0 -26 -21 -47 -47 -47c0 0 0 0 0 0" />
  </g>
</svg>