<svg height="1000px" width="707px" xmlns="http://www.w3.org/2000/svg">
  <g>
    <path d="M572 252.42174515235456c0 0 135 0 135 0c0 0 0 17 0 17c0 0 -106 68 -106 68c9 64 -43 93 -43 93c0 0 40 110 -39 202c-92 107 -192 68 -208 63c-16 -4 -15 7 -15 7c19 77 0 104 -42 108c-46 4 -38 -70 -38 -70c-79 70 -105 31 -99 5c10 -39 60 -86 60 -86c-145 0 -177 -108 -177 -108c0 0 70 18 118 8c50 -10 101 -48 119 -127c16 -71 93 -100 93 -100c0 -109 89 -143 141 -143c85 0 101 63 101 63c0 0 0 0 0 0m-126 43c0 22 18 40 40 40c22 0 40 -18 40 -40c0 -22 -18 -40 -40 -40c-22 0 -40 18 -40 40c0 0 0 0 0 0" />
  </g>
</svg>