<svg height="1000px" width="560px" xmlns="http://www.w3.org/2000/svg">
  <g>
    <path d="M192 621.775390625c0 -26 -20 -55 -20 -55c0 0 -2 11 -14 6c-11 -6 -22 -21 -25 -34c-1 -12 -11 -34 -15 -39c-4 -8 -1 -24 18 -26c0 0 -7 -15 -1 -22c0 0 -20 1 -11 -17c0 0 -41 -14 -7 -47c0 0 -22 -23 4 -27c0 0 -38 -43 13 -61c0 0 -46 -113 38 -118c44 -6 74 21 114 38c0 0 55 -45 86 -39c55 11 71 65 39 112c34 -9 46 44 19 64c0 0 16 18 0 38c0 0 24 34 -6 48c0 0 -5 20 -12 29c0 0 13 -2 17 8c5 12 7 22 -3 38c-10 15 -12 25 -16 34c-3 8 -6 33 -28 19c-30 37 -40 96 -20 148c0 0 5 9 5 9c69 14 153 29 193 46c0 0 0 46 0 46c0 0 -560 0 -560 0c0 0 0 -38 0 -38c33 -22 101 -39 167 -54c9 -35 26 -35 25 -106c0 0 0 0 0 0" />
  </g>
</svg>