<svg height="1000" width="1363" xmlns="http://www.w3.org/2000/svg"><path d="M902.5 664.316c0 -32.5 -25 -68.75 -25 -68.75s-2.5 13.75 -17.5 7.5c-13.75 -7.5 -27.5 -26.25 -31.25 -42.5 -1.25 -15 -13.75 -42.5 -18.75 -48.75 -5 -10 -1.25 -30 22.5 -32.5 0 0 -8.75 -18.75 -1.25 -27.5 0 0 -25 1.25 -13.75 -21.25 0 0 -51.25 -17.5 -8.75 -58.75 0 0 -27.5 -28.75 5 -33.75 0 0 -47.5 -53.75 16.25 -76.25 0 0 -57.5 -141.25 47.5 -147.5 55 -7.5 92.5 26.25 142.5 47.5 0 0 68.75 -56.25 107.5 -48.75 68.75 13.75 88.75 81.25 48.75 140 42.5 -11.25 57.5 55 23.75 80 0 0 20 22.5 0 47.5 0 0 30 42.5 -7.5 60 0 0 -6.25 25 -15 36.25 0 0 16.25 -2.5 21.25 10 6.25 15 8.75 27.5 -3.75 47.5 -12.5 18.75 -15 31.25 -20 42.5 -3.75 10 -7.5 41.25 -35 23.75 -37.5 46.25 -50 120 -25 185l6.25 11.25c86.25 17.5 191.25 36.25 241.25 57.5l0 57.5l-700 0l0 -2.5l-662.5 0s5 -62.5 57.5 -88.75c53.75 -26.25 255 -83.75 270 -90l1.25 -46.25 20 -5s6.25 -75 6.25 -85c0 0 -28.75 -60 -36.25 -92.5 0 0 -25 0 -28.75 -27.5 -2.5 -26.25 0 -42.5 -5 -61.25 -3.75 -18.75 10 -38.75 22.5 -35 0 0 -26.25 -133.75 0 -172.5 18.75 -26.25 73.75 -92.5 206.25 -116.25 0 0 32.5 -2.5 43.75 1.25 8.75 2.5 7.5 5 -10 22.5 0 0 68.75 42.5 90 110 15 41.25 8.75 131.25 0 155 0 0 21.25 -3.75 18.75 21.25 -3.75 40 -6.25 115 -33.75 102.5 0 0 -1.25 81.25 -27.5 98.75 0 0 -6.25 66.25 5 68.75l16.25 0s7.5 53.75 20 67.5c0 0 61.25 25 131.25 41.25 30 7.5 67.5 10 106.25 8.75 12.5 -33.75 30 -41.25 28.75 -122.5z"/></svg>