<svg height="1000px" width="1090px" xmlns="http://www.w3.org/2000/svg">
  <g>
    <path d="M722 631.3265306122449c0 -26 -20 -55 -20 -55c0 0 -2 11 -14 6c-11 -6 -22 -21 -25 -34c-1 -12 -11 -34 -15 -39c-4 -8 -1 -24 18 -26c0 0 -7 -15 -1 -22c0 0 -20 1 -11 -17c0 0 -41 -14 -7 -47c0 0 -22 -23 4 -27c0 0 -38 -43 13 -61c0 0 -46 -113 38 -118c44 -6 74 21 114 38c0 0 55 -45 86 -39c55 11 71 65 39 112c34 -9 46 44 19 64c0 0 16 18 0 38c0 0 24 34 -6 48c0 0 -5 20 -12 29c0 0 13 -2 17 8c5 12 7 22 -3 38c-10 15 -12 25 -16 34c-3 8 -6 33 -28 19c-30 37 -40 96 -20 148c0 0 5 9 5 9c69 14 153 29 193 46c0 0 0 46 0 46c0 0 -560 0 -560 0c0 0 0 -2 0 -2c0 0 -530 0 -530 0c0 0 4 -50 46 -71c43 -21 204 -67 216 -72c0 0 1 -37 1 -37c0 0 16 -4 16 -4c0 0 5 -60 5 -68c0 0 -23 -48 -29 -74c0 0 -20 0 -23 -22c-2 -21 0 -34 -4 -49c-3 -15 8 -31 18 -28c0 0 -21 -107 0 -138c15 -21 59 -74 165 -93c0 0 26 -2 35 1c7 2 6 4 -8 18c0 0 55 34 72 88c12 33 7 105 0 124c0 0 17 -3 15 17c-3 32 -5 92 -27 82c0 0 -1 65 -22 79c0 0 -5 53 4 55c0 0 13 0 13 0c0 0 6 43 16 54c0 0 49 20 105 33c24 6 54 8 85 7c10 -27 24 -33 23 -98c0 0 0 0 0 0" />
  </g>
</svg>