<svg height="1000px" width="717.7777777777778px" xmlns="http://www.w3.org/2000/svg">
  <g>
    <path d="M717.3333333333334 812.54c0 0 -716 0 -716 0c0 0 -3 -9 0 -57c41 -21 234 -73 245 -78c0 0 1 -36 1 -36c0 0 15 -4 15 -4c0 0 6 -56 6 -65c0 0 -23 -45 -28 -71c0 0 -19 0 -21 -19c-3 -20 0 -33 -5 -48c-3 -14 8 -29 17 -26c0 0 -20 -103 0 -131c14 -20 57 -71 158 -89c0 0 25 -3 33 1c6 2 5 4 -7 17c0 0 52 32 69 83c10 32 6 101 0 119c0 0 15 -3 13 16c-3 31 -4 88 -26 77c0 0 -1 64 -20 77c0 0 -6 50 3 52c0 0 13 0 13 0c0 0 5 41 15 52c0 0 214 55 235 79c1 26 0 51 0 51c0 0 0 0 0 0" />
  </g>
</svg>