<svg height="1000px" width="766px" xmlns="http://www.w3.org/2000/svg">
  <g>
    <path d="M377 803.7967863894139c-17 0 -28 -12 -33 -31c0 0 -44 -161 -44 -161c0 0 140 0 140 0c0 0 55 192 55 192c0 0 -118 0 -118 0c0 0 0 0 0 0m293 -488c0 0 96 -70 96 -70c0 0 0 277 0 277c0 0 -96 -71 -96 -71c0 0 0 -136 0 -136c0 0 0 0 0 0m-36 1c0 0 0 135 0 135c0 0 -115 0 -115 0c0 0 0 52 0 52c0 37 -28 65 -65 65c0 0 0 0 0 0c-7 0 -200 7 -258 -1c-43 -6 -196 -51 -196 -117c0 0 0 -135 0 -135c0 -64 141 -108 197 -115c70 -9 250 -2 257 -2c0 0 0 0 0 0c37 0 65 29 65 64c0 0 0 54 0 54c0 0 115 0 115 0c0 0 0 0 0 0m-455 157c32 0 58 -26 58 -58c0 -32 -26 -58 -58 -58c-32 0 -58 26 -58 58c0 32 26 58 58 58c0 0 0 0 0 0" />
  </g>
</svg>