<svg height="1000px" width="1050px" xmlns="http://www.w3.org/2000/svg">
  <g>
    <path d="M0 248c0 0 1050 0 1050 0c0 0 0 504 0 504c0 0 -1050 0 -1050 0c0 0 0 -504 0 -504c0 0 0 0 0 0m313 423c0 0 0 -55 0 -55c0 0 -151 0 -151 0c0 0 0 55 0 55c0 0 151 0 151 0c0 0 0 0 0 0m0 -140c0 0 0 -54 0 -54c0 0 -151 0 -151 0c0 0 0 54 0 54c0 0 151 0 151 0c0 0 0 0 0 0m0 -140c0 0 0 -53 0 -53c0 0 -151 0 -151 0c0 0 0 53 0 53c0 0 151 0 151 0c0 0 0 0 0 0m576 280c0 0 0 -55 0 -55c0 0 -151 0 -151 0c0 0 0 55 0 55c0 0 151 0 151 0c0 0 0 0 0 0m0 -140c0 0 0 -54 0 -54c0 0 -151 0 -151 0c0 0 0 54 0 54c0 0 151 0 151 0c0 0 0 0 0 0m0 -139c0 0 0 -54 0 -54c0 0 -151 0 -151 0c0 0 0 54 0 54c0 0 151 0 151 0c0 0 0 0 0 0" />
  </g>
</svg>