<svg height="1000" width="958" xmlns="http://www.w3.org/2000/svg"><path d="M471.25 879.992c-21.25 0 -35 -15 -41.25 -38.75l-55 -201.25l175 0l68.75 240l-147.5 0zm366.25 -610l120 -87.5l0 346.25l-120 -88.75l0 -170zm-45 1.25l0 168.75l-143.75 0l0 65c0 46.25 -35 81.25 -81.25 81.25 -8.75 0 -250 8.75 -322.5 -1.25 -53.75 -7.5 -245 -63.75 -245 -146.25l0 -168.75c0 -80 176.25 -135 246.25 -143.75 87.5 -11.25 312.5 -2.5 321.25 -2.5 46.25 0 81.25 36.25 81.25 80l0 67.5l143.75 0zm-568.75 196.25c40 0 72.5 -32.5 72.5 -72.5s-32.5 -72.5 -72.5 -72.5 -72.5 32.5 -72.5 72.5 32.5 72.5 72.5 72.5z"/></svg>