<svg height="1000" width="885" xmlns="http://www.w3.org/2000/svg"><path d="M460 123l0 753.75l-233.75 -233.75l-226.25 0l0 -286.25l226.25 0zm132.5 602.5l-65 -63.75c45 -45 68.75 -107.5 68.75 -167.5 0 -58.75 -21.25 -115 -63.75 -158.75l61.25 -61.25c61.25 62.5 97.5 143.75 97.5 227.5 0 76.25 -30 156.25 -98.75 223.75zm145 130l-70 -68.75c77.5 -76.25 116.25 -181.25 116.25 -287.5 0 -105 -38.75 -211.25 -116.25 -288.75l66.25 -66.25c97.5 97.5 151.25 228.75 151.25 361.25 0 123.75 -46.25 248.75 -147.5 350z"/></svg>