<svg height="1000px" width="769.3022448979592px" xmlns="http://www.w3.org/2000/svg">
  <g>
    <path d="M761.0522448979592 409.633789854846c11 11 11 28 0 40c0 0 -54 55 -54 55c-11 11 -28 11 -40 0c0 0 -12 -13 -12 -13c-9 -8 -13 -23 -8 -30c9 -6 6 -24 -11 -40c-24 -25 -55 -26 -67 -13c-5 4 -21 21 -21 21c0 0 -74 -73 -74 -73c0 0 12 -12 12 -12c0 0 0 0 0 0c0 0 3 -3 9 -10c23 -23 -1 -49 -1 -49c-65 -64 -156 -63 -156 -63c0 0 -1 -23 -1 -23c183 -47 252 33 277 58c0 0 53 53 53 53c13 13 0 50 19 71c9 9 21 13 30 13c10 -9 26 -6 34 3c0 0 11 12 11 12m-325 135c0 0 176 158 176 158c25 25 24 65 -1 91c-26 25 -66 25 -91 -1c0 0 -161 -170 -161 -170c0 0 -150 181 -150 181c-14 15 -39 15 -54 0c0 0 -39 -40 -39 -40c-15 -14 -15 -39 0 -54c0 0 172 -160 172 -160c0 0 -83 -80 -83 -80c-27 -26 -43 -34 -65 -27c-22 8 -53 8 -82 -11c-62 -40 -58 -115 -58 -115c0 0 5 -8 5 -8c0 0 56 36 63 40c9 7 40 21 68 -22c29 -43 5 -70 -3 -75c-7 -4 -63 -41 -63 -41c0 0 5 -8 5 -8c0 0 65 -33 126 3c0 0 0 0 0 0c0 2 15 11 21 16c39 35 39 74 32 106c-6 29 0 39 23 64c0 0 83 83 83 83c0 0 99 -101 99 -101c0 0 72 74 72 74c0 0 -95 97 -95 97m153 227c13 -12 13 -35 0 -48c-13 -13 -34 -13 -48 0c-12 13 -12 35 0 47c14 13 35 15 48 1c0 0 0 0 0 0" />
  </g>
</svg>