<svg height="1000" width="685" xmlns="http://www.w3.org/2000/svg"><path d="M0 583.75c-116.25 -117.5 -116.25 -308.75 0 -426.25 118.75 -117.5 308.75 -117.5 427.5 0 111.25 111.25 107.5 300 13.75 408.75l115 40 128.75 130c22.5 28.75 20 71.25 -7.5 98.75 -26.25 26.25 -67.5 28.75 -97.5 7.5l-130 -130 -40 -112.5c-110 92.5 -297.5 95 -410 -16.25zm370 -56.25c87.5 -87.5 87.5 -227.5 0 -313.75 -86.25 -87.5 -226.25 -87.5 -313.75 0 -86.25 86.25 -86.25 226.25 0 313.75 87.5 86.25 227.5 86.25 313.75 0zm-290 -191.25l100 0l0 -101.25l67.5 0l0 101.25l98.75 0l0 63.75l-98.75 0l0 100l-67.5 0l0 -100l-100 0l0 -63.75z"/></svg>