<svg height="1000px" width="629.75px" xmlns="http://www.w3.org/2000/svg">
  <g>
    <path d="M69.75 596.625c-93 -94 -93 -247 0 -341c95 -94 247 -94 342 0c89 89 86 240 11 327c0 0 92 32 92 32c0 0 103 104 103 104c18 23 16 57 -6 79c-21 21 -54 23 -78 6c0 0 -104 -104 -104 -104c0 0 -32 -90 -32 -90c-88 74 -238 76 -328 -13c0 0 0 0 0 0m296 -45c70 -70 70 -182 0 -251c-69 -70 -181 -70 -251 0c-69 69 -69 181 0 251c70 69 182 69 251 0c0 0 0 0 0 0m-232 -153c0 0 80 0 80 0c0 0 0 -81 0 -81c0 0 54 0 54 0c0 0 0 81 0 81c0 0 79 0 79 0c0 0 0 51 0 51c0 0 -79 0 -79 0c0 0 0 80 0 80c0 0 -54 0 -54 0c0 0 0 -80 0 -80c0 0 -80 0 -80 0c0 0 0 -51 0 -51c0 0 0 0 0 0" />
  </g>
</svg>