<svg height="1000" width="684" xmlns="http://www.w3.org/2000/svg"><path d="M0 583.75c-117.5 -117.5 -117.5 -308.75 0 -426.25s308.75 -117.5 426.25 0c111.25 111.25 107.5 300 15 408.75l113.75 40 128.75 130c22.5 28.75 20 71.25 -7.5 98.75 -26.25 26.25 -67.5 28.75 -97.5 7.5l-130 -130 -40 -112.5c-110 92.5 -297.5 95 -408.75 -16.25zm368.75 -56.25c87.5 -86.25 87.5 -227.5 0 -313.75 -85 -87.5 -226.25 -87.5 -313.75 0 -86.25 86.25 -86.25 227.5 0 313.75 87.5 86.25 228.75 86.25 313.75 0zm-290 -207.5l266.25 0l0 95l-266.25 0l0 -95z"/></svg>